<svg xmlns="http://www.w3.org/2000/svg" viewBox="0 0 688.588 417.814">
  <defs>
    <style>
      .cls-1, .cls-2 {
        fill: #eaadad;
      }

      .cls-1 {
        opacity: 0.34;
      }

      .cls-2 {
        opacity: 0.59;
      }
    </style>
  </defs>
  <title>bg-img</title>
  <g id="Шар_2" data-name="Шар 2">
    <g id="Objects">
      <g id="_Група_" data-name="&lt;Група&gt;">
        <g id="_Група_2" data-name="&lt;Група&gt;">
          <path id="_Контур_" data-name="&lt;Контур&gt;" class="cls-1" d="M.289,225.956q87.5-.958,175.012-.795a45.237,45.237,0,0,1-.138-7.3q-22.025-1.04-44.043-2.141c-.733-.037,0-29.111,0-29.111q55.313-.471,110.63-.151c-.039-2.333-.039-5.314-.016-8.389l-3.645-.079-94.048-2.017c-.089,0-.475-18.891-.266-26.233q-23.793-2.2-47.5-4.9c-1.015-.116-.3-14.641,0-23.126v-5.985l118.064.884-47.864-3.454c-.688-.05-.2-29.1,0-29.111q92.7-4.376,185.407-8.739L184.236,60.442,75.807,50.82c-.814-.072-.13-29.1,0-29.111L403.578,4.786,496.271,0c-.588.03,1.161,29.051,0,29.111l-213.073,11L458.162,55.638,566.591,65.26c.847.075.084,29.107,0,29.11q-78.03,3.633-156.059,7.3l144.217,10.407,109.709,7.917c.812.058.184,17.418,0,25.3V149.1l-151.791-1.137c0,2.293-.011,4.636-.028,6.807l59.418,1.274c.374.008.274,12.278.15,20.884q37.2.495,74.417.47s.685,29.082,0,29.111q-21.063.879-42.134,1.581c-.08,5.042-.239,10.668-.314,14.283v3.775c-4.763-.088-9.526-.2-14.29-.292-.021,1.052-.04,1.982-.053,2.751V230.9q-25.752-.405-51.5-.919c0,.239-.006.478-.009.714q41.193,1.179,82.373,2.6c.643.022.143,17.6,0,25.424V262.4q-7.873-.226-15.746-.469c-.077,5.374-.209,10.976-.255,13.856v1.972c-90.6-1.529-181.251-2.01-271.864-.816q38.863,3.954,77.778,7.617,40.616,3.813,81.285,7.3c.944.082.333,12.248,0,20.825v8.286Q387.941,315.95,283.8,313.724q63.654,8.349,127.339,16.556,50.061,6.437,100.143,12.773c.179.023.277.964.325,2.353q28.483,1.182,56.968,2.368,59.822,2.476,119.644,4.942c.162.007.741,29.049,0,29.111-67.42,5.636-135.115,9.167-202.876,11.362-68.126,2.207-136.314,3.085-204.5,3.484q-57.565.339-115.134.371c-.25,0-.325-29.11,0-29.111,56.157-.106,112.318-.221,168.47-.8q-35.943-1.5-71.888-3-59.819-2.506-119.638-5.023c-.638-.026-.075-29.11,0-29.111q21.2-.219,42.4-.209-15.342-2.043-30.685-4.077-50-6.69-99.982-13.477c-1.091-.149-.3-15.36,0-23.731v-5.38q35.836-.3,71.677-.259c-.809-.145-.4-14.6-.145-23.08L.289,255.067C-.3,255.044.175,225.957.289,225.956Z"/>
          <path id="_Контур_2" data-name="&lt;Контур&gt;" class="cls-2" d="M177.306,74.761c-.18-.023-.278-.964-.325-2.353Q148.5,71.226,120.012,70.04,60.191,67.563.368,65.1c-.162-.007-.741-29.049,0-29.111,67.42-5.636,135.116-9.168,202.876-11.362,68.126-2.207,136.314-3.085,204.5-3.485q57.566-.338,115.134-.37c.251,0,.325,29.11,0,29.11-56.157.107-112.317.222-168.47.8q35.943,1.5,71.888,3,59.82,2.506,119.638,5.023c.638.026.076,29.11,0,29.11q-21.2.22-42.4.21,15.342,2.043,30.685,4.077,50,6.69,99.982,13.477c1.091.148.3,15.354,0,23.727v5.384q-35.835.3-71.673.259c.8.178.4,14.606.141,23.08L688.3,162.747c.589.023.115,29.11,0,29.111q-87.5.959-175.011.795a45.186,45.186,0,0,1,.137,7.29q22.024,1.039,44.043,2.147c.734.037,0,29.111,0,29.111q-55.312.471-110.63.151c.04,2.333.04,5.314.017,8.389l3.644.079,94.048,2.017c.09,0,.475,18.887.267,26.233q23.793,2.2,47.5,4.895c1.013.116.3,14.633,0,23.12v5.991l-118.065-.884,47.864,3.454c.689.05.2,29.1,0,29.111q-92.7,4.375-185.407,8.739l167.645,14.876,108.429,9.622c.814.072.13,29.1,0,29.111L285.01,413.028l-92.693,4.786c.588-.03-1.16-29.051,0-29.111l213.074-11L230.426,362.176,122,352.554c-.847-.075-.084-29.107,0-29.111q78.032-3.631,156.059-7.3L133.84,305.739,24.131,297.822c-.812-.058-.185-17.409,0-25.291v-3.82l151.79,1.137c0-2.292.012-4.637.028-6.807l-59.418-1.274c-.373-.008-.274-12.278-.15-20.884q-37.2-.5-74.416-.47s-.686-29.082,0-29.111q21.061-.879,42.133-1.581c.08-5.037.239-10.664.314-14.278v-3.78c4.764.088,9.527.2,14.29.292.022-1.043.04-1.97.053-2.736v-2.306q25.754.4,51.5.919,0-.36.009-.714-41.193-1.179-82.373-2.6c-.642-.022-.143-17.593,0-25.421v-3.69q7.873.227,15.746.468c.078-5.37.21-10.971.255-13.852v-1.975c90.6,1.529,181.252,2.01,271.864.816q-38.863-3.954-77.777-7.617-40.617-3.813-81.285-7.3c-.945-.081-.333-12.246,0-20.822V96.841q103.95,5.023,208.09,7.249-63.652-8.349-127.339-16.556Q227.389,81.1,177.306,74.761Z"/>
        </g>
      </g>
    </g>
  </g>
</svg>
