<svg xmlns="http://www.w3.org/2000/svg" viewBox="0 0 32.78 32">
  <defs>
    <style>
      .cls-1 {
        fill: #fccf00;
      }
    </style>
  </defs>
  <title>lifecell</title>
  <g id="Шар_2" data-name="Шар 2">
    <g id="Шар_1-2" data-name="Шар 1">
      <path class="cls-1" d="M0,16A16.2,16.2,0,0,1,16.387,0,16.2,16.2,0,0,1,32.78,16,16.2,16.2,0,0,1,16.387,32a16.838,16.838,0,0,1-5.114-.792,18.743,18.743,0,0,1,11.08-14.275,3.675,3.675,0,0,0,2.76,1.233A3.56,3.56,0,1,0,21.468,14.6a25.455,25.455,0,0,0-16,13.333,16.1,16.1,0,0,1-2.506-2.755A18.294,18.294,0,0,1,10.906,10.5a3.678,3.678,0,0,0,2.725,1.2,3.6,3.6,0,0,0,3.643-3.56,3.645,3.645,0,0,0-7.288,0c0,.1.007.207.015.3A18.068,18.068,0,0,0,.011,16.62C0,16.418,0,16.207,0,16"/>
    </g>
  </g>
</svg>
