<svg xmlns="http://www.w3.org/2000/svg" viewBox="0 0 187.216 301.563">
  <defs>
    <style>
      .cls-1 {
        fill: #323644;
      }

      .cls-2 {
        fill: #e12851;
      }
    </style>
  </defs>
  <title>1shopik-logo-3</title>
  <g id="Шар_2" data-name="Шар 2">
    <g id="Layer_1" data-name="Layer 1">
      <g>
        <g>
          <g>
            <path class="cls-1" d="M28.137,39.711S15.86,19.164,33.1,19.233C49.156,19.3,111,80.38,144.353,82.842a14.076,14.076,0,0,0,12.736-5.852c2.9-4.266,3.246-10.343-10.972-15.478,0,0,16.236,7.248,3.772,15.955S45.081,17.72,45.081,17.72,27.107,5.525,21.131,18.858C16.943,28.2,28.137,39.711,28.137,39.711Z"/>
            <path class="cls-1" d="M73.016,26.19S95.173,51.381,123.7,57.811C123.7,57.811,92.56,42.093,73.016,26.19Z"/>
            <path class="cls-1" d="M74.941,20.562S88.2-8.58,109.1,2.523c23.063,12.251,21.842,39.29,19.16,47.08,0,0-1.7-29.274-21.039-36.981S74.941,20.562,74.941,20.562Z"/>
          </g>
          <path class="cls-1" d="M100.1,66.118S87.412,77.562,63.887,79.62,31.158,106.48,34.5,120.891s-15.707,26.3-30.427,12.436c0,0-9.717-11.438.881-18.171,0,0-3.632,13.381,8.98,9.637,9.261-2.749.656-13.457.484-28.9C14.229,79.254,24.521,45.26,69.306,45.26,69.306,45.26,81.35,54.548,100.1,66.118Z"/>
          <path class="cls-1" d="M95.985,82.883s10.5-1.716,16.066,9.491,15.761,43.34,15.761,43.34,12.973-25.026,11.119-55.3c0,0,3.711,40.474-9.265,66.427,0,0-13.953-35.066-19.16-48.507S95.985,82.883,95.985,82.883Z"/>
        </g>
        <g>
          <path class="cls-2" d="M45.337,166a96.855,96.855,0,0,0,45.249-7.48c-2.08-3.863-2.361-10.3,11.013-17.114,3.318-1.69,6.119-4.438,6.873-8.085.077-.377.14-.77.185-1.18a12.431,12.431,0,0,0-2.877-9.023c-2.792-3.495-7.22-6.1-6.864-17.312,0,0-9.178,19.54-26.175,31.434,0,0-10.725-17.843-11.249-43.884,0,0-1.7,14.548-17.639,26.241,0,0-4.265,8.045-.126,22.037C45.669,148.2,45.773,157.732,45.337,166Z"/>
          <path class="cls-2" d="M172.36,276.755c10-3.36,14.856-4.006,14.856-4.006s-20.862-95.59-93.5-110.528c0,0-20.148,11.035-48.738,9.132-.557,6.787-1.317,11.762-1.317,11.762s-19.1,70.156-10.414,114.936c0,0,21.182,9.1,39.076-2s22.473-9.775,50.8-3.074,37.71,7.733,43.477-4.246S162.359,280.114,172.36,276.755Z"/>
        </g>
      </g>
    </g>
  </g>
</svg>
