<?xml version="1.0" encoding="iso-8859-1"?>
<svg xmlns="http://www.w3.org/2000/svg" viewBox="0 0 691.807 660.809">
  <defs>
    <style>
      .cls-1, .cls-2 {
        fill: #eaadad;
      }

      .cls-1 {
        opacity: 0.34;
      }

      .cls-2 {
        opacity: 0.59;
      }

      .cls-3 {
        fill: #c161a6;
      }

      .cls-4 {
        fill: #e06ec5;
      }

      .cls-5 {
        fill: #933b7e;
      }

      .cls-13, .cls-24, .cls-6 {
        fill: none;
        stroke: #050505;
        stroke-miterlimit: 10;
      }

      .cls-7 {
        fill: #260113;
      }

      .cls-8 {
        fill: #540636;
      }

      .cls-9 {
        fill: #5e0433;
      }

      .cls-10 {
        fill: #7c0e4d;
      }

      .cls-11 {
        fill: #dda885;
      }

      .cls-12 {
        fill: #050505;
      }

      .cls-13 {
        stroke-width: 0.5px;
      }

      .cls-14 {
        fill: #e8bd92;
      }

      .cls-15 {
        fill: #ddb38e;
      }

      .cls-16 {
        fill: #ffd3b6;
      }

      .cls-17 {
        fill: #ce9a78;
      }

      .cls-18 {
        fill: #edb78e;
      }

      .cls-19 {
        fill: #932268;
      }

      .cls-20 {
        fill: #ad3d88;
      }

      .cls-21 {
        fill: #d39272;
      }

      .cls-22 {
        fill: #b58061;
      }

      .cls-23 {
        fill: #f1ddbc;
      }

      .cls-24 {
        stroke-width: 0.25px;
      }

      .cls-25 {
        fill: #f48583;
      }
    </style>
  </defs>
  <title>1shopik-girl</title>
  <g id="Шар_2" data-name="Шар 2">
    <g id="Objects">
      <g id="_Група_" data-name="&lt;Група&gt;">
        <g id="_Група_2" data-name="&lt;Група&gt;">
          <path id="_Контур_" data-name="&lt;Контур&gt;" class="cls-1" d="M1.9,389.323q87.5-.958,175.012-.795a45.237,45.237,0,0,1-.138-7.3q-22.023-1.04-44.043-2.141c-.733-.037,0-29.111,0-29.111q55.314-.471,110.631-.151c-.04-2.333-.04-5.314-.017-8.389l-3.644-.079-94.049-2.017c-.089,0-.475-18.891-.266-26.233q-23.793-2.2-47.5-4.895c-1.014-.116-.3-14.641,0-23.126v-5.985l118.065.884-47.865-3.454c-.688-.05-.2-29.1,0-29.111q92.7-4.376,185.408-8.739L185.846,223.809,77.417,214.187c-.815-.072-.131-29.1,0-29.111l327.77-16.923,92.693-4.786c-.588.03,1.161,29.051,0,29.111l-213.073,11,174.965,15.526L568.2,228.627c.847.075.084,29.107,0,29.11q-78.032,3.633-156.059,7.3l144.216,10.407,109.709,7.917c.812.058.184,17.418,0,25.3v3.815l-151.791-1.137c0,2.293-.011,4.636-.027,6.807l59.418,1.274c.373.008.273,12.278.15,20.884q37.2.5,74.416.47s.685,29.082,0,29.111q-21.061.879-42.134,1.581c-.08,5.042-.238,10.668-.313,14.283v3.775c-4.764-.088-9.527-.2-14.29-.292-.022,1.052-.041,1.982-.053,2.751v2.292q-25.754-.407-51.5-.92c0,.239-.006.478-.009.714q41.192,1.179,82.372,2.6c.643.022.143,17.6,0,25.424v3.687q-7.874-.226-15.745-.469c-.078,5.374-.21,10.976-.256,13.856v1.972c-90.6-1.529-181.251-2.01-271.864-.816q38.863,3.954,77.778,7.617,40.617,3.813,81.285,7.3c.944.082.333,12.248,0,20.825v8.287q-103.952-5.023-208.091-7.249,63.654,8.349,127.339,16.556,50.061,6.436,100.143,12.773c.179.023.277.964.325,2.353q28.485,1.182,56.968,2.368,59.822,2.477,119.644,4.942c.162.007.741,29.049,0,29.111-67.42,5.636-135.115,9.167-202.875,11.362-68.127,2.207-136.315,3.085-204.5,3.484q-57.567.339-115.135.371c-.25,0-.325-29.11,0-29.111,56.158-.106,112.318-.221,168.471-.8q-35.945-1.5-71.888-3-59.82-2.507-119.638-5.023c-.638-.026-.076-29.11,0-29.111q21.2-.219,42.4-.209-15.342-2.043-30.685-4.077-50-6.69-99.982-13.477c-1.091-.149-.3-15.36,0-23.731v-5.38q35.838-.3,71.677-.259c-.809-.145-.4-14.6-.145-23.08L1.9,418.434C1.309,418.412,1.784,389.324,1.9,389.323Z"/>
          <path id="_Контур_2" data-name="&lt;Контур&gt;" class="cls-2" d="M178.915,238.128c-.18-.023-.278-.964-.325-2.353q-28.485-1.182-56.969-2.368Q61.8,230.931,1.978,228.465c-.162-.007-.741-29.049,0-29.111,67.42-5.636,135.115-9.168,202.875-11.362,68.127-2.207,136.315-3.085,204.5-3.485q57.565-.337,115.134-.37c.251,0,.325,29.11,0,29.11-56.157.107-112.317.222-168.47.8q35.944,1.5,71.888,3,59.82,2.506,119.638,5.023c.638.026.076,29.11,0,29.111q-21.2.219-42.4.209,15.342,2.043,30.686,4.077,50,6.69,99.982,13.477c1.09.148.3,15.354,0,23.727v5.384q-35.837.3-71.674.259c.8.178.4,14.606.141,23.08l125.635,4.717c.59.023.115,29.11,0,29.111q-87.5.958-175.011.795a45.28,45.28,0,0,1,.138,7.29q22.023,1.039,44.043,2.147c.733.037,0,29.111,0,29.111q-55.314.471-110.631.151c.04,2.333.04,5.314.017,8.389l3.644.079,94.049,2.017c.089,0,.475,18.887.266,26.233q23.793,2.2,47.5,4.895c1.014.116.3,14.633,0,23.12v5.991l-118.065-.884,47.864,3.454c.689.05.2,29.1,0,29.111q-92.7,4.375-185.407,8.739l167.645,14.876,108.429,9.622c.815.072.131,29.1,0,29.111L286.62,576.4l-92.694,4.786c.588-.03-1.16-29.051,0-29.111l213.074-11L232.035,525.543l-108.429-9.622c-.847-.075-.084-29.107,0-29.111q78.032-3.632,156.059-7.3L135.449,469.106,25.74,461.189c-.812-.058-.184-17.409,0-25.291v-3.82l151.79,1.137c0-2.292.012-4.637.028-6.807l-59.418-1.274c-.373-.008-.273-12.278-.15-20.884q-37.2-.5-74.416-.47s-.686-29.082,0-29.111q21.062-.879,42.133-1.581c.08-5.037.239-10.664.314-14.278v-3.78c4.764.088,9.527.2,14.29.292.022-1.043.04-1.97.053-2.736V350.28q25.754.405,51.5.919,0-.36.009-.714-41.193-1.179-82.373-2.6c-.642-.022-.143-17.593,0-25.421v-3.69q7.873.226,15.746.468c.078-5.37.21-10.971.255-13.852v-1.975c90.6,1.529,181.252,2.01,271.864.816q-38.862-3.954-77.777-7.617-40.617-3.813-81.285-7.3c-.944-.081-.333-12.246,0-20.822v-8.289q103.952,5.023,208.091,7.249-63.654-8.349-127.339-16.556Q229,244.465,178.915,238.128Z"/>
          <g id="_Група_3" data-name="&lt;Група&gt;">
            <g id="_Група_4" data-name="&lt;Група&gt;">
              <path id="_Контур_3" data-name="&lt;Контур&gt;" class="cls-3" d="M381.658,321.69c39.5,56.98,16.188,123.026,134.681,150.868s112.666,43.383,50.505,40.146,91.3,6.475,115.9,13.6-9.065-12.3-5.828,18.778,31.728,82.233-29.137,55.685-56.333-140.508-128.854-54.39-82.274,108.781-144.09,98.421,37.252-198.784-77.033-135.977-4.856,158.639-107.162,95.831-120.436,45.973-118.493-38.2-16.188-64.1-33.023-75.759,16.187-91.3,69.93-32.375S261.222,418.713,280,367.288s42.411-67.478,42.411-67.478,16.624,21.232,33.4,21.232S381.658,321.69,381.658,321.69Z"/>
              <g id="_Група_5" data-name="&lt;Група&gt;">
                <path class="cls-4" d="M333.363,307.658c-40.293,26.569-51.445,77.212-61.087,121.284-2.725,12.455-5.2,24.958-7.675,37.465-2.181,11.015-5.035,21.679-10.494,31.569-10.075,18.251-26.161,32.652-43.832,43.374-23.146,14.043-49.094,22.41-74.36,31.7-1.716.631,1.518,14.442,0,15,41.54-15.274,88.318-29.65,114.188-68.482,13.136-19.719,15.372-43.561,20.152-66.216,5.1-24.167,10.159-48.78,19.131-71.864,9.016-23.2,22.89-44.925,43.977-58.83.676-.446.075-6.593.075-7.5,0-.886-.733-7.066-.075-7.5Z"/>
              </g>
              <g id="_Група_6" data-name="&lt;Група&gt;">
                <path class="cls-4" d="M60.579,477.02c35.961,23.912,82.066,37.842,123.878,20.8,19.663-8.013,37.02-22.361,53.236-35.795,16.281-13.49,31.283-28.55,42.708-46.441,13.452-21.065,22.207-44.647,30.861-67.966,1.1-2.952-1.077-7.1,0-10-7.635,20.573-15.328,41.285-26.274,60.379-10.772,18.79-25.052,34.809-41.347,48.984-15.857,13.794-33.1,27.986-51.925,37.517-19.305,9.775-41.467,12.593-62.81,9.855C104.22,491.19,81.155,480.7,60.579,467.02c1.486.987-1.589,8.943,0,10Z"/>
              </g>
              <g id="_Група_7" data-name="&lt;Група&gt;">
                <path class="cls-4" d="M354.462,332.685c34.239,19.457,54.419,55.7,76.346,86.984Q450.331,447.526,470.8,474.7c12.109,16.08,23.843,33.695,39.1,47.012,17.571,15.335,40.024,19.735,62.783,19.416.12,0,.029-10,0-10-19.957.28-40.481-2.813-57-14.791-16.342-11.849-28.134-29.553-40.192-45.435q-20.568-27.093-40.2-54.877c-11.719-16.581-22.773-33.673-34.944-49.93-12.723-17-27.249-32.826-45.877-43.412,1.375.782-1.489,9.154,0,10Z"/>
              </g>
              <g id="_Група_8" data-name="&lt;Група&gt;">
                <path class="cls-4" d="M331.762,329.958c18.539,28.268,37.222,56.782,50.207,88.132,13.446,32.464,19.5,67.713,19.914,102.77.261,22.062-1.856,44.2-4.518,66.077-.4,3.291.4,6.726,0,10,4.323-35.525,6.335-71.665,3.485-107.4-3.182-39.9-14.679-77.274-33.8-112.394-10.717-19.687-23.008-38.454-35.291-57.184,1.506,2.295-1.551,7.635,0,10Z"/>
              </g>
              <g id="_Група_9" data-name="&lt;Група&gt;">
                <path class="cls-4" d="M74.78,556.721a63.481,63.481,0,0,0,47.762,26.409c10.153.54,19.449-.242,28.457,5.294,7.006,4.305,12.634,10.449,18.685,15.929,6.412,5.807,13.391,10.879,22.015,12.7,9.806,2.071,20.1.189,29.251-3.587,19.553-8.067,33.368-24.9,49.394-37.99,7.791-6.365,16.337-12.106,25.86-15.523,8.815-3.163,21.605-5.877,29.161,1.326,7.305,6.964,11.134,19.128,13.879,28.552,3.032,10.413,3.683,21.436,7.267,31.689,2.953,8.448,8.735,16.706,17.522,19.769,9.86,3.437,18.192-2.445,25.3-8.694,16.969-14.924,33.483-30.355,50.714-44.982,36.729-31.18,77.523-59.466,125.075-70.72.817-.193-.674-9.84,0-10-41.965,9.932-78.966,33.246-112.191,60.045-17.623,14.215-34.388,29.445-51.217,44.58-7.426,6.678-15.25,15.893-24.778,19.543-8.745,3.35-17.556-.516-23.486-7.214-6.862-7.749-8.849-18.179-10.67-28.044-2.063-11.174-4.842-21.951-9.71-32.27-1.919-4.068-3.982-8.466-7.158-11.731-4.065-4.179-9.5-5.182-15.141-4.9-10.034.5-19.6,4.463-28.068,9.674-17.951,11.051-31.179,28.024-48.617,39.751-15.93,10.712-37.365,16.583-54.723,5.642-7.792-4.912-13.894-11.963-20.837-17.92-8.574-7.358-17.1-10.652-28.444-10.8-10.919-.145-21.059-1.371-31.032-6.135A63.671,63.671,0,0,1,74.78,546.721c1.554,2.162-1.605,7.768,0,10Z"/>
              </g>
              <path id="_Контур_4" data-name="&lt;Контур&gt;" class="cls-5" d="M416.875,660.627c85.261,5.183,59.966-102.306,145.437-75.758S668.064,618.2,668.064,618.2s-28.7-14.551-56.542-55.991-33.67-75.759-85.47-25.9S331.656,655.447,416.875,660.627Z"/>
              <path id="_Контур_5" data-name="&lt;Контур&gt;" class="cls-6" d="M314.259,352.52c-5.938,19.144-16.453,28.592-16.453,28.592"/>
              <g id="_Група_10" data-name="&lt;Група&gt;">
                <path class="cls-7" d="M56.145,499.039c21.353,9.752,45.908,9.767,68.777,6.8a290.3,290.3,0,0,0,56.506-13.546c3.747-1.283,7.494-2.6,11.158-4.11.617-.253-.553-4.772,0-5a263.686,263.686,0,0,1-31.892,10.427c-21.642,5.808-44.256,9.737-66.732,8.771-12.994-.558-25.935-2.916-37.817-8.343.6.273-.661,4.7,0,5Z"/>
              </g>
              <g id="_Група_11" data-name="&lt;Група&gt;">
                <path class="cls-7" d="M327.052,316.991c-25.387,19.608-32.925,49.8-38.719,79.8-5.808,30.079-12.188,61.226-35.8,82.833-17.792,16.28-41.261,24.536-64.476,29.458-.373.079.3,4.936,0,5,21-4.452,42.081-11.564,59.164-24.96a93,93,0,0,0,28.256-37.89c11.648-28.02,12.139-59.073,22.3-87.534,5.872-16.451,15.371-30.967,29.28-41.71.828-.64-.782-4.4,0-5Z"/>
              </g>
              <g id="_Група_12" data-name="&lt;Група&gt;">
                <path class="cls-7" d="M54.02,441.564c9.06,17.16,22.192,32.875,41.182,39.113,24.319,7.987,50.857-.692,72.879-11.4,18.534-9.013,35.826-20.5,52.325-32.8,16.78-12.5,33.222-25.862,47.5-41.214C280.152,382.1,290.9,367.187,293.327,349c.553-4.138.61-8.838,3.35-12.246,3.991-4.965,11.767-6.483,17.582-7.854.407-.1-.336-4.921,0-5-5.559,1.311-12.469,2.718-16.71,6.9-2.751,2.713-3.354,6.381-3.832,10.056-2.071,15.924-8.506,28.837-18.72,41.316-11.45,13.989-25.177,26.087-39.215,37.4-17.557,14.147-36.011,27.433-55.72,38.435C157,470.881,128.918,482.933,101.918,477.45c-22.263-4.52-37.684-21.539-47.9-40.886.68,1.288-.7,3.682,0,5Z"/>
              </g>
              <g id="_Група_13" data-name="&lt;Група&gt;">
                <path class="cls-7" d="M82.511,436.168c1.78,7.9,3.379,15.886,5.657,23.667,1.526,5.21,3.376,10.66,6.916,14.883,7.96,9.494,22.592,8.485,33.708,7.869.128-.008-.055-5,0-5-11.1.615-25.765,1.632-33.708-7.869-3.433-4.107-5.271-9.357-6.777-14.416-2.36-7.925-3.981-16.073-5.8-24.134.355,1.578-.359,3.407,0,5Z"/>
              </g>
              <g id="_Група_14" data-name="&lt;Група&gt;">
                <path class="cls-7" d="M75.712,569.122c21.53,20.574,50.8,13.823,72.139-3.253,3.032-2.426,7.256-4.942,9.807-7.86.1-.115.6-.1.6-.1-.488.706,1.145-5.5-.059-3.285-.715,1.313-.849,3.536-1.16,5-1.9,8.916-1.725,17.889-4.307,26.689-1.708,5.82-3,11.128-2.943,17.212.071,6.938,3.234,11.8,8.865,15.833,22.554,16.141,51.493,17.733,76.33,6.557,23.932-10.767,46.631-30.831,58.937-54.2.695-1.319-.678-3.711,0-5-10.8,20.514-29.6,38.019-49.571,49.425-11.243,6.421-23.716,11.087-36.693,12.142-14.325,1.165-28.005-2.9-40.786-9.146-7.592-3.711-14.8-8.341-16.887-16.928-.319-1.311-.507,1.768.032-.243.164-.61.2-1.284.323-1.907.328-1.667.788-3.306,1.259-4.937.966-3.341,2.051-6.649,2.783-10.052,1.044-4.854.971-9.789,1.649-14.692.521-3.772,1.717-7.419,2.254-11.167.162-1.127.805-5.246.1-5.939-.959-.946-3.184,1.562-4.076,2.3-10.976,9.042-22.18,17.312-36.351,20.469-15.661,3.49-30.68-.858-42.248-11.912.813.777-.852,4.186,0,5Z"/>
              </g>
              <g id="_Група_15" data-name="&lt;Група&gt;">
                <path class="cls-7" d="M177.046,573.331c1.163,4.352,2.964,9.626,7.639,5.224,2.967-2.793,5.253-6.452,7.553-9.78,4.062-5.88,7.99-11.851,12.014-17.757,8.763-12.859,16.473-25.655,22.794-39.9,2.153-4.85,4.129-9.818,6.592-14.523.913-1.746,2.575-5.654,4.95-5.845,2.758-.222,4.205,4.314,4.957,6.235,2.648,6.773,4.014,14,5.926,20.992a118.358,118.358,0,0,0,6.743,19.537c1.581,3.338,3.573,7.208,6.764,9.3,5.656,3.705,11.315-1.749,14.922-5.8,5.466-6.138,8.906-12.055,10.137-20.219,2.127-14.11.605-28.664-.168-42.818-.038-.7-.024-1.421-.1-2.113-.053-.471-.145-1.687-.023.739.185,3.66-.093.66.031.673-.109-.012.245-1.37.394-1.273a6.882,6.882,0,0,1,2.2,3.141c5.131,10.92,8.681,22.782,12.612,34.161,10.046,29.082,17.346,59.211,28.366,87.94,4.271,11.133,12.43,32.208,27.97,24.043,8.424-4.426,14.857-12.827,20.06-20.549a188.519,188.519,0,0,0,16.585-31.507,368.311,368.311,0,0,0,17.6-52.094c.273-1.053.545-2.108.8-3.166.379-1.584-.375-3.433,0-5a355.824,355.824,0,0,1-11.86,38.652c-7.7,21.175-17.064,44.054-32.964,60.5-4.59,4.748-11.235,10.89-18.448,10.073-6.427-.728-10.608-6.931-13.5-12.1-5.264-9.417-8.607-19.95-11.912-30.171-4.742-14.666-9.05-29.47-13.675-44.173q-7.662-24.351-16.424-48.335c-.431-1.18-5.311-16.93-7.328-16.451-2.524.6.589,28.8.634,31.039.158,8.011-.2,17.486-4.049,24.746-2.97,5.6-9.072,13.812-15.419,15.906-7.029,2.319-11.294-5.9-13.648-11.115-5.857-12.968-7.108-27.406-12.576-40.444-.768-1.832-2.162-5.69-4.766-5.331-2.476.341-4.239,4.728-5.168,6.565-5.621,11.12-9.892,22.821-16.008,33.719-7.432,13.243-16.68,25.7-25.331,38.179-1.634,2.358-7.644,13.367-11.83,10.815-1.907-1.163-2.532-4.8-3.044-6.719.413,1.546-.418,3.436,0,5Z"/>
              </g>
              <g id="_Група_16" data-name="&lt;Група&gt;">
                <path class="cls-7" d="M283.237,378.612c-12.074,26.226-22.177,53.841-36.948,78.727-11.356,19.132-26.691,34.3-47.708,42.353-15.224,5.835-31.584,8.167-47.759,9.393-.162.012.088,4.993,0,5,25.519-1.933,52.342-6.86,72.554-23.7,17.921-14.93,28.391-36.74,37.878-57.545,7.456-16.352,14.467-32.9,21.983-49.228.639-1.388-.626-3.64,0-5Z"/>
              </g>
              <g id="_Група_17" data-name="&lt;Група&gt;">
                <path class="cls-7" d="M360.294,335.7c30.327,33.03,59.081,67.383,88.708,101.025,9.623,10.928,19.442,21.728,30.071,31.695,13.124,12.305,28.094,22.336,41.4,34.434,9.9,9,20.121,18.795,27.59,30.011-.757-1.137.78-3.828,0-5-16.732-25.127-43.133-41.124-65.152-60.916-24.09-21.655-44.467-47.385-65.541-71.871q-28.067-32.61-57.08-64.378c.813.885-.847,4.077,0,5Z"/>
              </g>
              <g id="_Група_18" data-name="&lt;Група&gt;">
                <path class="cls-7" d="M353.052,336.992c13.546,44.137,29.514,87.44,46.218,130.467,10.579,27.253,23.035,54.648,29.79,83.188,2.48,10.477,4.675,21.053,6.115,31.728.423,3.135.786,6.281,1.008,9.436.137,1.95-.095,7,.182.567-.064,1.5.065,3.641.014,4.822a117.874,117.874,0,0,0-1.5-21.919,277.478,277.478,0,0,0-11.465-48.923c-12.5-37.007-28-73-41.546-109.631-10.348-27.988-20.063-56.207-28.818-84.735.464,1.512-.471,3.467,0,5Z"/>
              </g>
              <g id="_Група_19" data-name="&lt;Група&gt;">
                <path class="cls-7" d="M372.377,331.488a530.05,530.05,0,0,1,61.485,73.1c11.1,15.739,21.766,33.03,37.429,44.716,17.486,13.045,39.379,17.388,60.757,15.573,6.352-.539,11.255-.077,14.63,5.948a42.445,42.445,0,0,1,4.389,12.231c.158.794.233,1.595.373,2.391a10.65,10.65,0,0,0,.118,1.569c-.108-.166.354-3.753-.048-2.349-.349,1.216-.331,2.561-.695,3.8-.836,2.85-3.044,5.162-3.816,7.948-.712,2.566-.946,6.16,1.549,7.551,1.845,1.028,4.416,1.264,6.452,1.643,4.343.808,8.724,1.422,13.094,2.059,17.182,2.5,34.37,4.958,51.536,7.57,13.749,2.091,27.514,4.188,41.165,6.856,7.571,1.48,15.492,2.9,22.635,5.931a15.593,15.593,0,0,1,5.207,3.1c.462.477.742,1.078,1.166,1.556,1.851,2.085-2.48,1.343.363-2.543-1.394,1.906-1.192,3.746-3.808,5.061-3.455,1.737-7.91,1.134-11.611.852-3.019-.231-7.627-1.2-10.369.579-2.405,1.561-1.924,4.826-1.87,7.326.166,7.715,5.2,15.337,8.344,22.217,3.673,8.03,7.544,16.446,8.874,25.25.162,1.073-.006,3.7.324.59a21.283,21.283,0,0,1-.369,2.649,10.711,10.711,0,0,1-1.836,4.084c-2.175,2.86-5.689,3.96-9.134,4.3-5.857.578-11.846-.779-17.475-2.24.371.1-.441,4.885,0,5,7.555,1.961,21.451,5.648,26.927-2.509,3.092-4.605,2.332-12.409,1.443-17.609-1.534-8.967-5.521-17.5-9.3-25.7-1.82-3.949-3.733-7.859-5.463-11.849-.318-.733-2.824-6.052-2.193-6.468l.012,2.309.155-.52c.164-.045.255-.767.474-.877.717-.36,1.2-1.05,2.033-1.368,6.886-2.619,16.553,3.443,22.648-2.076,2.619-2.371,3.07-7.486,2.113-10.7-1.106-3.71-6.144-5.323-9.364-6.445-8.486-2.953-17.512-4.507-26.326-6.1-31.2-5.655-62.692-9.461-94.008-14.38a85.177,85.177,0,0,1-9.63-1.816c-.833-.231-3.09-1.8-3.684-1.811-.048,0-.1-.255-.124-.252l-.024-.064q-.307-1.276-.037,2.087l0,2.219.028-.149c.053-.016.032-.27.087-.312a6.831,6.831,0,0,0,.754-1.54c.749-1.45,1.664-2.784,2.3-4.3,1.832-4.337,1.792-9.3,1.487-13.927-.424-6.442-2.959-16.324-8.523-20.279-5.178-3.68-13.592-1.081-19.392-.871-13.034.473-26.169-2.616-38.054-7.877-17.568-7.778-29.687-22.183-40.685-37.433-16.647-23.081-32.772-46.238-51.942-67.371-6.64-7.32-13.521-14.412-20.57-21.338.814.8-.852,4.163,0,5Z"/>
              </g>
              <g id="_Група_20" data-name="&lt;Група&gt;">
                <path class="cls-7" d="M338.815,339.474q14.47,39.93,26.08,80.83c6.982,24.728,13.37,49.8,17.184,75.238,1.585,10.573,3.285,21.661,1.666,32.32-.248,1.634.246,3.378,0,5,2.776-18.28-.589-37.84-3.949-55.765-5.766-30.754-14.243-61.027-23.55-90.877q-8.127-26.067-17.431-51.746c.529,1.461-.538,3.516,0,5Z"/>
              </g>
              <g id="_Група_21" data-name="&lt;Група&gt;">
                <path class="cls-7" d="M361.637,341.632c27.88,62.7,56.536,126,75.639,192.069q5.2,18,9.348,36.285c-.36-1.575.364-3.409,0-5-12.439-54.337-32.567-106.266-54.186-157.526-10-23.722-20.341-47.3-30.8-70.828.613,1.378-.624,3.595,0,5Z"/>
              </g>
              <g id="_Група_22" data-name="&lt;Група&gt;">
                <path class="cls-7" d="M385.245,328.9c24.5,35.09,44.2,73.872,71.239,107.142,10.688,13.152,23.022,25.4,38.058,33.5,14.7,7.92,32.3,12.008,48.872,13.371,9.073.747,18.633-.44,27.441,2.282,12.506,3.865,21.337,14.23,32.913,19.878,13.407,6.542,28.249,9.661,42.717,12.888,11.914,2.657,25.662,4.66,36.034,11.551a17.285,17.285,0,0,1,7.554,10.041c.737,2.546.373-1.016.033.967-.117.68-.13,1.388-.18,2.076-.124,1.691-.187,3.385-.229,5.08-.2,8.126.146,16.268-.5,24.38-1.339,16.883-8.189,31.862-26.242,35.381-13.723,2.675-28.385-.323-41.664-3.846-20.707-5.493-40.658-13.164-61.7-17.526-26.418-5.477-53.615-6.611-78.641,4.8-27.766,12.665-50.4,34.443-77.2,48.894-12.645,6.817-26.755,13.47-41.307,14.5-6.672.474-16.213-.383-20.039-6.824-3.6-6.062-4.588-14.2-5.84-21-1.973-10.714-3.432-21.52-4.962-32.3-1.479-10.42-2.908-20.865-4.92-31.2-1.135-5.831-2-14.384-5.994-19.155-3.6-4.3-6.692,2.268-8,5.237-3.155,7.157-5.643,14.467-9.343,21.4a145.067,145.067,0,0,1-16.016,23.919c-23.044,27.969-59.43,49.528-96.38,37.91-14.146-4.447-26.815-11.912-35.909-23.771-4.527-5.9-8.5-15.054-16.5-16.8-4.92-1.072-9.575.953-14.422,1.385-6.642.591-13.379-.845-19.57-3.186A74.878,74.878,0,0,1,68.791,560.52,60.471,60.471,0,0,1,59.9,538.158c-1.377-8.127-.311-16.669-.285-24.893A153.808,153.808,0,0,0,59.11,496.7c-.388-3.682-.911-8.291-3.661-11.074-2.367-2.4-5.458-2.328-8.581-2.47-3.87-.177-5.429-2.519-6.323-6.183a23.384,23.384,0,0,1-.48-2.844c-.052-.45-.225-3.673-.18-1.628.044,1.979.075-1.031.086-1.17a80.191,80.191,0,0,1,1.61-10.868,73.294,73.294,0,0,1,6.881-18.992c5.839-10.785,16.444-19.269,28.766-12.623,4.746,2.56,8.679,6.755,13.714,8.758,5.676,2.259,8.616-1.556,12.988-4.528,6.71-4.56,11.515-2.767,13.857,4.851,2.7,8.778,2.93,18.132,5.774,26.893,2.747,8.461,8.041,15.184,17.609,14.969.074,0,0-5,0-5-21.368.48-18.88-29.052-23.736-42.96-3.1-8.886-9.649-6.917-15.934-1.933-4.444,3.526-7.782,4.487-12.922,1.515-4.988-2.884-9.156-7.095-14.661-9.078-13.435-4.84-23.054,8.09-27.735,18.834a80.064,80.064,0,0,0-6.349,33.567c.062,3.7.084,8.447,2.513,11.5,2.286,2.869,5.673,1.514,8.835,2.194,10.922,2.348,8.459,22.069,8.3,29.381-.319,14.86-.913,28.486,6.122,42.181a75.034,75.034,0,0,0,34.686,33.1,50.851,50.851,0,0,0,19.891,5.092c5.516.138,10.757-2.161,16.229-1.788,8.745.6,12.835,9.222,17.425,15.481,19.957,27.209,57.686,35.159,88.186,22.453,17.562-7.316,32.716-19.868,44.819-34.4a144.644,144.644,0,0,0,16.5-24.5c3.695-6.935,6.189-14.247,9.343-21.4,1.4-3.167,4.578-9.67,8.18-4.993,3.926,5.1,4.79,13.552,5.955,19.636,4.1,21.426,5.988,43.217,10.091,64.643,1.207,6.3,2.116,14.994,6.209,20.256,5.065,6.511,15.965,6.333,23.2,5.266,15.745-2.322,30.694-10.012,44.285-17.92,15.427-8.976,29.579-19.776,44.3-29.806,20.483-13.952,41.887-23.956,67.1-24.231,16.409-.179,32.756,2.786,48.632,6.706,20.994,5.182,41.158,13.636,62.407,17.726,19.186,3.693,44.161,4.215,52.635-17.2,5.9-14.923,3.033-31.459,4.272-47.039.6-7.535,1.416-15.041-4.82-20.564-8.891-7.874-22.935-10-34.1-12.522-15.07-3.4-30.514-6.359-44.7-12.7-12.157-5.437-21.261-15.941-33.8-20.517-8.992-3.279-18.8-2.082-28.169-2.776-16.477-1.222-34-5.2-48.711-12.85-33.468-17.413-54.235-53.4-73.556-84.256C410.1,361.7,398.205,342.457,385.245,323.9c.77,1.1-.794,3.862,0,5Z"/>
              </g>
              <g id="_Група_23" data-name="&lt;Група&gt;">
                <path class="cls-7" d="M383.924,316.971c-10.028,3.783-20.279,7.216-31.02,4.4-9.557-2.5-17.742-8.513-25.566-14.3.773.571-.821,4.393,0,5,7.825,5.784,16.008,11.792,25.566,14.3,10.747,2.817,20.988-.616,31.02-4.4.582-.219-.517-4.805,0-5Z"/>
              </g>
            </g>
            <g id="_Група_24" data-name="&lt;Група&gt;">
              <path id="_Контур_6" data-name="&lt;Контур&gt;" class="cls-3" d="M310.149,215.81c-39.5,56.981-16.188,123.026-134.681,150.869S62.8,410.062,124.962,406.825s-91.3,6.474-115.9,13.6,9.065-12.3,5.828,18.778-31.728,82.233,29.137,55.685,56.333-140.508,128.854-54.39,82.274,108.781,144.09,98.42S279.716,340.131,394,402.94s4.856,158.638,107.162,95.83,120.436,45.973,118.493-38.2,16.188-64.1,33.023-75.758-16.188-91.3-69.931-32.375-152.163-39.6-170.941-91.025S369.4,193.931,369.4,193.931s-16.624,21.232-33.4,21.232S310.149,215.81,310.149,215.81Z"/>
              <g id="_Група_25" data-name="&lt;Група&gt;">
                <path class="cls-4" d="M358.444,216.779c40.293,26.569,51.445,77.212,61.087,121.284,2.724,12.455,5.2,24.958,7.674,37.465,2.182,11.015,5.036,21.679,10.5,31.569,10.075,18.251,26.161,32.652,43.832,43.374,23.145,14.043,49.094,22.41,74.36,31.7-1.521-.559,1.719-14.368,0-15-41.541-15.274-88.318-29.65-114.188-68.482-13.137-19.719-15.372-43.561-20.153-66.216-5.1-24.167-10.159-48.78-19.13-71.864-9.016-23.2-22.89-44.925-43.977-58.83.527.347-.075,6.67-.075,7.5,0,.96-.728,6.971.075,7.5Z"/>
              </g>
              <g id="_Група_26" data-name="&lt;Група&gt;">
                <path class="cls-4" d="M631.227,361.141c-35.96,23.911-82.065,37.842-123.877,20.8-19.663-8.013-37.021-22.361-53.236-35.8-16.282-13.489-31.283-28.549-42.708-46.44-13.453-21.065-22.208-44.647-30.862-67.966,1.078,2.9-1.1,7.047,0,10,7.636,20.573,15.328,41.285,26.274,60.378,10.773,18.791,25.053,34.81,41.348,48.985,15.857,13.794,33.1,27.985,51.925,37.517,19.3,9.775,41.466,12.593,62.81,9.855,24.686-3.166,47.751-13.655,68.326-27.336,1.587-1.056-1.483-9.014,0-10Z"/>
              </g>
              <g id="_Група_27" data-name="&lt;Група&gt;">
                <path class="cls-4" d="M337.345,216.806c-34.239,19.457-54.419,55.7-76.346,86.984q-19.523,27.855-39.989,55.033c-12.109,16.08-23.843,33.695-39.1,47.011-17.571,15.336-40.024,19.736-62.782,19.417-.027,0-.123,10,0,10,19.957.28,40.481-2.813,57-14.791,16.343-11.849,28.135-29.553,40.193-45.435q20.568-27.093,40.2-54.877c11.719-16.581,22.772-33.673,34.943-49.93,12.724-17,27.25-32.826,45.878-43.412,1.487-.845-1.373-9.22,0-10Z"/>
              </g>
              <g id="_Група_28" data-name="&lt;Група&gt;">
                <path class="cls-4" d="M360.045,214.078c-21.479,32.752-43.29,66.024-55.955,103.374-12,35.384-14.707,72.525-14.26,109.638a588.194,588.194,0,0,0,4.612,63.968c-.4-3.275.4-6.708,0-10-4.57-37.55-6.566-75.319-.426-112.82,5.542-33.849,18.208-65.208,35.156-94.893,9.613-16.836,20.245-33.061,30.873-49.267,1.55-2.363-1.5-7.705,0-10Z"/>
              </g>
              <g id="_Група_29" data-name="&lt;Група&gt;">
                <path class="cls-4" d="M617.027,440.842a63.481,63.481,0,0,1-47.762,26.409c-10.153.54-19.449-.242-28.458,5.293-7,4.305-12.633,10.45-18.684,15.93-6.412,5.807-13.391,10.878-22.015,12.7-9.806,2.071-20.1.189-29.252-3.588-19.552-8.066-33.367-24.9-49.393-37.989-7.791-6.365-16.337-12.106-25.86-15.523-8.815-3.163-21.605-5.877-29.161,1.326-7.305,6.964-11.135,19.128-13.879,28.552-3.032,10.413-3.684,21.436-7.267,31.689-2.953,8.448-8.735,16.706-17.523,19.769-9.86,3.437-18.191-2.445-25.3-8.694-16.969-14.924-33.483-30.355-50.714-44.982-36.729-31.18-77.524-59.466-125.076-70.72.678.16-.818,9.806,0,10,41.966,9.932,78.967,33.246,112.191,60.044C256.5,485.274,273.266,500.5,290.1,515.639c7.426,6.678,15.25,15.893,24.778,19.543,8.744,3.35,17.556-.516,23.486-7.214,6.861-7.749,8.849-18.179,10.67-28.044,2.063-11.174,4.842-21.951,9.71-32.27,1.919-4.068,3.982-8.466,7.158-11.731,4.064-4.179,9.5-5.183,15.141-4.9,10.033.5,19.6,4.463,28.068,9.674,17.951,11.051,31.179,28.024,48.617,39.751,15.93,10.712,37.365,16.583,54.722,5.642,7.793-4.912,13.895-11.963,20.837-17.92,8.575-7.358,17.1-10.652,28.445-10.8,10.919-.145,21.058-1.372,31.032-6.135a63.686,63.686,0,0,0,24.267-20.389c1.6-2.231-1.553-7.84,0-10Z"/>
              </g>
              <path id="_Контур_7" data-name="&lt;Контур&gt;" class="cls-5" d="M274.932,554.748c-85.261,5.183-59.966-102.306-145.437-75.758S23.743,512.319,23.743,512.319s28.7-14.551,56.542-55.992,33.67-75.758,85.47-25.9S360.151,549.568,274.932,554.748Z"/>
              <path id="_Контур_8" data-name="&lt;Контур&gt;" class="cls-8" d="M341.715,149.455c-12.627,0-24.747-9.1-24.747-9.1l3.379,29.757s16.188-.423,23.8-3.337S341.715,149.455,341.715,149.455Z"/>
              <g id="_Група_30" data-name="&lt;Група&gt;">
                <path class="cls-7" d="M352.238,80.867c-9.818.46-20.957.463-26.835,9.8-2.874,4.568-3.952,10.181-5.159,15.367a122.215,122.215,0,0,0-2.964,17.482c-1.4,16.722.632,33.71,7.543,49.094-.616-1.373.629-3.6,0-5a88.475,88.475,0,0,1-6.9-23.549c-1.594-10.933-.33-21.438,2.114-32.112,1.693-7.395,3.169-15.9,9.5-20.873,6.491-5.1,14.893-4.846,22.709-5.212.115-.005-.04-5,0-5Z"/>
              </g>
              <g id="_Група_31" data-name="&lt;Група&gt;">
                <path class="cls-9" d="M338.755,78.9a45,45,0,0,0-19.771,18.679c-4.694,8.542-5.7,18.084-5.879,27.671-.321,16.937-.8,35.712,10.887,49.329-.808-.941.839-4.022,0-5-12.193-14.2-13.106-37.219-9.523-54.611A44.7,44.7,0,0,1,338.755,83.9c.688-.337-.628-4.691,0-5Z"/>
              </g>
              <path id="_Контур_9" data-name="&lt;Контур&gt;" class="cls-10" d="M331.513,81.079H320.725s-21.692,14.256-19.641,54.077,9.065,38.2,9.065,38.2l6.819.578s-9.193-22.593-7.143-54.429S331.513,81.079,331.513,81.079Z"/>
              <path id="_Контур_10" data-name="&lt;Контур&gt;" class="cls-11" d="M317.6,2.8c-24.281-2.859-54.822,27.142-48.4,57.359s15.486,32.591,10.738,48.994-10.269,21.821.863,17.272,27.4-5.4,9.923-41.445S317.6,2.8,317.6,2.8Z"/>
              <g id="_Група_32" data-name="&lt;Група&gt;">
                <path class="cls-12" d="M324.826,11.869c3.57,3.818,10.071,9.7,10.961,15.283v-2.5a18.173,18.173,0,0,0-.373,4.144c.273,3.826,3.039,6.2,4.678,9.426,3.932,7.743.939,16.959,2.739,25.166l0-2.455c-.373,10.865-14.181,6.516-20.738,5.7q-10.512-1.31-21-2.763c.094.013-.131,2.482,0,2.5q9.462,1.3,18.938,2.5c4.309.545,8.622,1.1,12.946,1.522,3.344.328,5.9.736,8.231-2.36a9.55,9.55,0,0,0,1.64-6.779,101.41,101.41,0,0,1-.467-10.291,48.553,48.553,0,0,0-1.28-12.467c-1.148-4.285-5.315-7.347-5.669-11.834v2.5c.163-1.724.673-3.383.219-5.12-1.42-5.432-7.191-10.8-10.816-14.674.407.436-.425,2.047,0,2.5Z"/>
              </g>
              <path id="_Контур_11" data-name="&lt;Контур&gt;" class="cls-13" d="M337.776,83.032c-5.288-5.18-3.13-13.058-3.13-13.058"/>
              <path id="_Контур_12" data-name="&lt;Контур&gt;" class="cls-13" d="M364.511,101.621c9.093,14.866,20.748,30.19,20.533,42.924s-6.786,23.119-5.228,34.546"/>
              <path id="_Контур_13" data-name="&lt;Контур&gt;" class="cls-13" d="M363.26,94.959c-11.887-16.459-22.678-13.006-30.88-8.474s-19.857,31.944-17.914,46.621,5.611,38.85,5.611,38.85"/>
              <path id="_Контур_14" data-name="&lt;Контур&gt;" class="cls-13" d="M347.755,162.154c-13.864,9.586-29.4,15.846-40.628,10.881"/>
              <path id="_Контур_15" data-name="&lt;Контур&gt;" class="cls-6" d="M343.257,148.544c-20.158-.114-27.279-7.319-29.006-21.2"/>
              <path id="_Контур_16" data-name="&lt;Контур&gt;" class="cls-6" d="M321.964,80.88c-20.017,10.354-28.574,57.7-12.317,93.057"/>
              <path id="_Контур_17" data-name="&lt;Контур&gt;" class="cls-6" d="M360.007,164.51c9.389,19.749,8.741,31.4,11.979,37.879s6.8,20.72,6.8,20.72"/>
              <path id="_Контур_18" data-name="&lt;Контур&gt;" class="cls-6" d="M364.755,105.263c3.487,23.994,2.051,37.232,2.051,37.232"/>
              <path id="_Контур_19" data-name="&lt;Контур&gt;" class="cls-6" d="M377.548,246.641C383.486,265.785,394,275.233,394,275.233"/>
              <path id="_Контур_20" data-name="&lt;Контур&gt;" class="cls-14" d="M311.851,34.075c-5.277,4.186-10.686,6.38-12.735,13.305-1.9,6.431.839,14.081,4.571,19.946,3.675,5.773,8.076,9.288,9.743,16.255a63.366,63.366,0,0,1,1.318,14.53,110.976,110.976,0,0,1-1.847,23.016c.425-2.059-.43-4.4,0-6.475,1.616-7.825,2.408-16.051.691-23.911-1.313-6.008-4.221-9.543-7.948-14.192A35.4,35.4,0,0,1,298.4,58.827c-.848-6.955-3.218-21.9.578-27.973,3.062-4.895,12.3-13.113,16.512-16.943C319.672,10.109,322.5,25.631,311.851,34.075Z"/>
              <path id="_Контур_21" data-name="&lt;Контур&gt;" class="cls-15" d="M321.449,11.743c-1.33,5.023-5.157,7.963-9.3,10.692-10.322,6.8-16.93,14.764-13.917,27.673,3.048,13.058,9.537,24.962,13.14,37.834,1.589,5.676,3.25,15.075.164,20.559.91-1.618-.934-4.816,0-6.475a15.718,15.718,0,0,0,.967-2.269c.576-1.5.812,1.585,0-.49s-1.04-4.629-1.715-6.806c-1.75-5.65-4.03-11.129-6.16-16.642-3.854-9.973-7.657-20.119-7.822-30.929-.131-8.655.852-17.036,7.557-23.321,3.189-2.988,7.129-4.9,10.6-7.51A19.068,19.068,0,0,0,319.574,9.5C320.216,8.528,322.4,8.166,321.449,11.743Z"/>
              <path id="_Контур_22" data-name="&lt;Контур&gt;" class="cls-16" d="M317.6,17.1c-5.308,3.019-11.405,6.324-15.072,11.4a24.053,24.053,0,0,0-2.066,4.192c-.734,1.549-.327,7.552-.341-3.065-.012-9.072-.048-5.052.158-2.852.686,7.351,1.415,16.14-.7,23.3-3.227,10.908-13.743,21.918-22.64,28.672-1.172.89-6.01,4.766-7.736,2.729-.736-.868-.065-5.317-.065-6.475s1.657-10.2.908-11.087c1.64,1.936,5.32,3.051,6.5,2.186,4.675-3.425,8.633-7.945,12.379-12.321,4.142-4.837,8.518-9.943,10.5-16.119.326-1.019.471-2.082.771-3.1,1.4-4.765.689,11.2.208,6.64-.139-1.317-.246-2.652-.314-3.977a130.54,130.54,0,0,1-.043-13.96c.55-9.73,9.926-14.763,17.563-19.108-1.782,1.014,1.929,11.853,0,12.951Z"/>
              <path id="_Контур_23" data-name="&lt;Контур&gt;" class="cls-17" d="M304.46,17.714c-3.595,4.585-7.3,9.254-9.639,14.64-.507,1.169-2.41,9.541-2.192,4-.116,2.943.863,6.328,1.426,9.2,2.372,12.122,6.462,23.815,9.409,35.8a112.049,112.049,0,0,1,3.1,27.984c-.013,3.9.058,7.813-1.257,11.545-1.885,5.352-6.013,9.424-9.987,13.288.592-.575-.064-5.545-.064-6.475,0-1.087-.744-5.688.064-6.475a56.152,56.152,0,0,0,9.987-13.288q.741-4.046.745-.821-.336-2.337-.783-4.654c-.588-3.127-1.311-6.228-2.088-9.313-3.009-11.964-7.076-23.661-9.343-35.807a120.024,120.024,0,0,1-1.51-25.561c.3-10.766,5.67-18.761,12.135-27.008-.655.835.065,5.342.065,6.475,0,1.308.774,5.4-.065,6.475Z"/>
              <path id="_Складений_контур_" data-name="&lt;Складений контур&gt;" class="cls-17" d="M275.683,51.857c1.376,8.264,6.308,15.886,8.42,23.949a56.5,56.5,0,0,1-7.3,15.622c-1.978,3.125,1.923,9.914,0,12.951,4.6-7.269,7.6-14.506,8.233-22.814.012.233.039.463.045.7q0-.907,0-1.815c.035-.683.088-1.357.091-2.055.01-3.414,1.343-46.539,18.069-64.426.923-.987,27.358-17.7,0-12.95-7.892,2.4-16.078,5.5-21.649,11.886-5.06,5.805-6.455,13.2-6.565,20.671C274.939,39.627,274.684,45.86,275.683,51.857Z"/>
              <path id="_Контур_24" data-name="&lt;Контур&gt;" class="cls-18" d="M296.236,18.828C289.014,25.206,282.407,31.7,281.6,41.8q.012-2.763.023-5.527c.216,23.208,18.439,42.554,18.234,65.715-.081,9.186-4.609,19.457-11.2,25.972-2.322,2.3-2.313,1.524-2.378-1.176-.015-.622-.388-4.819.64-4.4.8.327-.715,6.182,0,6.475q-.461-.369-.609.3v-6.475c.73,1.743,7.156-7.864,7.891-9.051a35.594,35.594,0,0,0,5.623-15.478l-.028,1.6q.008-1.041.014-2.082.014,2.436.028,4.871c-.949-10.21-6.3-19.855-9.915-29.337-3.521-9.238-7.751-19.3-8.305-29.288a68.375,68.375,0,0,1,.071-9.686c.845-9.452,7.835-15.955,14.551-21.886-1.044.922,1.1,5.506,0,6.475Z"/>
              <path id="_Контур_25" data-name="&lt;Контур&gt;" class="cls-18" d="M320.185,13.965c-11.116.475-24.046,2.206-32.03,10.838a24.953,24.953,0,0,0-6.126,13.014c-.76,4.58,1.394,8.659-.368-4.583.261,1.962.343,3.929.665,5.889A110.214,110.214,0,0,0,284.924,50c4.379,16.219,7.382,32.863,7.771,49.687.269,11.592.522,23.469-1.809,34.881.842-4.123-.851-8.79,0-12.95A84.526,84.526,0,0,0,292.2,113c.028-.281-.127-5.73.411-6.265q.075,6.318-.068,1.707-.048-.954-.1-1.909a193.979,193.979,0,0,0-3.619-27.164c-2.792-13.9-7.27-26.741-7.3-41.022-.021-9.626-.151-19.5,7.018-26.913C296.558,3.15,303.055.888,313.98.421c10.738,3.749,6.488,13.532,6.2,13.544Z"/>
              <g id="_Група_33" data-name="&lt;Група&gt;">
                <g id="_Група_34" data-name="&lt;Група&gt;">
                  <path class="cls-10" d="M385.774,135c-15.266,21.815-49.911,51.043-77.712,32.284.537.363-.075,6.659-.075,7.5,0,.976-.737,6.953.075,7.5,27.8,18.759,62.446-10.469,77.712-32.284.869-1.241.075-5.976.075-7.5s-.957-6.24-.075-7.5Z"/>
                </g>
                <g id="_Група_35" data-name="&lt;Група&gt;">
                  <path class="cls-19" d="M382.113,150.535c-13.4,20.67-45.741,51.362-71.964,32.285.569.414-.075,6.618-.075,7.5,0,1.026-.768,6.887.075,7.5,26.223,19.076,58.561-11.616,71.964-32.285.867-1.336.075-5.9.075-7.5s-.953-6.145-.075-7.5Z"/>
                </g>
                <g id="_Група_36" data-name="&lt;Група&gt;">
                  <path class="cls-20" d="M380.632,164.579c-12.924,20.349-44.674,51.455-70.483,32.285.578.429-.075,6.606-.075,7.5,0,1.04-.776,6.868.075,7.5,25.809,19.17,57.56-11.937,70.483-32.285.865-1.362.075-5.882.075-7.5s-.952-6.119-.075-7.5Z"/>
                </g>
              </g>
              <g id="_Група_37" data-name="&lt;Група&gt;">
                <path class="cls-7" d="M635.662,388.16c-21.353,9.752-45.908,9.767-68.777,6.8a290.258,290.258,0,0,1-56.507-13.547c-3.746-1.282-7.493-2.6-11.158-4.109.554.228-.618,4.746,0,5a263.644,263.644,0,0,0,31.893,10.427c21.642,5.808,44.255,9.737,66.732,8.771,12.994-.559,25.935-2.917,37.817-8.343.66-.3-.6-4.727,0-5Z"/>
              </g>
              <g id="_Група_38" data-name="&lt;Група&gt;">
                <path class="cls-7" d="M364.755,216.112c25.387,19.608,32.925,49.8,38.718,79.8,5.808,30.079,12.188,61.226,35.8,82.833,17.793,16.279,41.262,24.536,64.477,29.458-.3-.065.374-4.921,0-5-21-4.452-42.081-11.564-59.164-24.96a92.989,92.989,0,0,1-28.256-37.89c-11.648-28.02-12.139-59.073-22.3-87.534-5.873-16.451-15.371-30.967-29.28-41.71.783.605-.83,4.36,0,5Z"/>
              </g>
              <g id="_Група_39" data-name="&lt;Група&gt;">
                <path class="cls-7" d="M637.786,330.685c-9.059,17.16-22.192,32.875-41.182,39.113-24.318,7.987-50.856-.692-72.878-11.4-18.534-9.013-35.827-20.5-52.325-32.8-16.78-12.5-33.222-25.862-47.5-41.214-12.244-13.163-22.991-28.077-25.42-46.266-.552-4.138-.609-8.838-3.349-12.246-3.991-4.965-11.767-6.483-17.582-7.854.337.08-.408,4.9,0,5,5.559,1.311,12.469,2.718,16.71,6.9,2.751,2.713,3.353,6.381,3.831,10.056,2.071,15.923,8.507,28.837,18.721,41.316,11.45,13.989,25.177,26.087,39.215,37.4,17.557,14.147,36.011,27.433,55.72,38.435,23.066,12.876,51.144,24.928,78.143,19.445,22.263-4.52,37.684-21.539,47.9-40.886.7-1.318-.679-3.713,0-5Z"/>
              </g>
              <g id="_Група_40" data-name="&lt;Група&gt;">
                <path class="cls-7" d="M609.3,325.289c-1.78,7.905-3.379,15.886-5.658,23.667-1.525,5.21-3.376,10.66-6.916,14.883-7.959,9.494-22.591,8.485-33.707,7.869.056,0-.13,4.992,0,5,11.1.615,25.764,1.632,33.707-7.869,3.434-4.107,5.271-9.357,6.778-14.416,2.36-7.925,3.981-16.073,5.8-24.134.359-1.593-.355-3.423,0-5Z"/>
              </g>
              <g id="_Група_41" data-name="&lt;Група&gt;">
                <path class="cls-7" d="M616.1,458.243c-21.529,20.573-50.8,13.823-72.139-3.253-2.057-1.645-4.08-3.331-6.108-5.011-.6-.5-2.672-2.77-3.576-2.786-1.534-.028-.894,1.956-.879,3.491a31.347,31.347,0,0,0,1.1,6.808,111.31,111.31,0,0,1,2.041,15.738c.581,7.149,3.439,13.668,4.873,20.625.15.729.2,1.515.388,2.228.462,1.722.137-.344.071-.06a19.88,19.88,0,0,1-1.351,4.493c-1.688,3.447-4.676,6.1-7.773,8.259-22.844,15.961-51.641,17.4-76.554,5.975-23.66-10.854-46.088-30.727-58.3-53.917.678,1.29-.7,3.681,0,5,10.8,20.514,29.6,38.019,49.57,49.425,11.639,6.647,24.609,11.415,38.07,12.24,14.233.873,28.038-3.422,40.619-9.847,6.876-3.512,14.777-8.547,15.756-16.931a40.561,40.561,0,0,0-1.4-15.472c-.922-3.313-2.024-6.574-2.811-9.923-1.087-4.623-1.14-9.271-1.673-13.967-.431-3.8-.751-8.838-2.356-12.384-1.164-2.571.075,3.455-.147,3.112-.058-.089.445-.1.516-.019a27.193,27.193,0,0,0,3.151,2.355C548.113,463.4,559.128,471.69,573.186,475c15.859,3.733,31.148-.519,42.909-11.757.851-.813-.812-4.224,0-5Z"/>
              </g>
              <g id="_Група_42" data-name="&lt;Група&gt;">
                <path class="cls-7" d="M514.76,462.452c-1.161,4.347-2.969,9.62-7.638,5.224-2.837-2.67-5.031-6.14-7.235-9.32-4.012-5.787-7.88-11.674-11.841-17.5-8.8-12.927-16.649-25.723-23.023-40.032-2.136-4.794-4.1-9.686-6.475-14.371-.937-1.851-2.689-6.223-5.168-6.565-2.606-.36-3.994,3.489-4.766,5.331-2.818,6.719-4.161,14.018-6.049,21.023a127.867,127.867,0,0,1-6.527,19.421c-1.6,3.534-3.553,7.553-6.75,9.933-5.463,4.069-11.078-.776-14.815-4.841-5.527-6.009-9.246-11.969-10.581-20.064-2.372-14.382.909-28.605.207-42.988-.214-4.367-1.706-1.538-2.889,1.061-5.2,11.416-8.956,23.654-13.017,35.5C378.309,433.091,371.146,463,360.061,491.4c-4.372,11.2-12.565,31.177-27.881,22.84-8.428-4.588-14.855-13.031-20.071-20.856a191.851,191.851,0,0,1-16.5-31.592A368.588,368.588,0,0,1,278.2,410.06c-.256-.988-.51-1.977-.747-2.969.375,1.567-.379,3.415,0,5a355.933,355.933,0,0,0,12.057,39.191c7.716,21.116,17.113,44.039,33.126,60.329,4.59,4.67,11.2,10.656,18.35,9.678,6.57-.9,10.765-7.5,13.645-12.817,5.217-9.638,8.58-20.317,11.916-30.712,4.754-14.81,9.107-29.745,13.794-44.577q7.7-24.372,16.528-48.377c1.427-3.863,3.119-12.341,6.772-14.684.126-.081.54,1.241.4,1.273.03-.006.018.542.036.544-.138-.011.166-3.635-.029-1.956-.08.695-.065,1.414-.1,2.113-.187,3.428-.449,6.851-.646,10.278-.412,7.159-.584,14.339-.4,21.509.186,7.109.6,14.931,3.79,21.426,2.84,5.789,8.967,13.846,15.206,16.285,6.871,2.687,11.22-4.718,13.7-9.959,6.19-13.069,7.461-27.689,12.847-40.988.743-1.836,2.159-6,4.78-5.776,2.484.217,4.2,4.385,5.139,6.216,5.647,10.967,9.813,22.6,15.817,33.412,7.408,13.345,16.723,25.84,25.394,38.4,1.675,2.425,7.732,13.646,12.027,11.366,1.994-1.058,2.658-4.914,3.164-6.81.418-1.564-.412-3.455,0-5Z"/>
              </g>
              <g id="_Група_43" data-name="&lt;Група&gt;">
                <path class="cls-7" d="M408.57,277.733c12.073,26.226,22.177,53.841,36.948,78.726,11.356,19.133,26.69,34.3,47.708,42.353,15.223,5.836,31.583,8.168,47.758,9.394-.089-.007.164-4.988,0-5-25.519-1.934-52.342-6.861-72.554-23.7-17.92-14.93-28.391-36.74-37.877-57.545-7.456-16.352-14.467-32.9-21.983-49.228.626,1.361-.64,3.611,0,5Z"/>
              </g>
              <g id="_Група_44" data-name="&lt;Група&gt;">
                <path class="cls-7" d="M331.513,224.818c-30.328,33.03-59.081,67.383-88.708,101.025-9.624,10.927-19.443,21.728-30.071,31.695-13.124,12.305-28.094,22.336-41.4,34.434-9.9,9-20.122,18.8-27.59,30.011-.78,1.171.757,3.864,0,5,16.731-25.127,43.133-41.124,65.152-60.917,24.09-21.654,44.467-47.384,65.541-71.87q28.067-32.61,57.08-64.378c.846-.922-.813-4.115,0-5Z"/>
              </g>
              <g id="_Група_45" data-name="&lt;Група&gt;">
                <path class="cls-7" d="M338.755,226.113c-14.6,47.568-32.066,94.123-50.109,140.472-12.391,31.832-25.053,63.075-30.789,96.917-1.551,9.151-2.83,18.506-2.429,27.819-.051-1.192.078-3.308.013-4.822-.042-.989-.27,4.662.011,2.722.1-.7.058-1.476.1-2.186.149-2.565.41-5.125.714-7.676,1.029-8.614,2.633-17.16,4.455-25.638a296.707,296.707,0,0,1,11.448-38.993c12.8-35.3,27.211-70,40.115-105.261,9.475-25.894,18.38-51.993,26.471-78.354.471-1.533-.464-3.488,0-5Z"/>
              </g>
              <g id="_Група_46" data-name="&lt;Група&gt;">
                <path class="cls-7" d="M319.43,220.609c-23.4,22.99-43.934,48.155-62.787,74.95-11.278,16.031-22.3,33.585-38.819,44.785-9.65,6.545-21,10.721-32.4,12.924-9.912,1.915-19.139.777-29.051.5-14.127-.395-17,18.852-16.092,29.9.327,3.967,2.01,6.906,3.772,10.338a8.132,8.132,0,0,0,.725,1.459c.1.114.041.453.143.542l-.007-4.438-.033.131c-.045,0-.11.359-.186.379-1.091.291-2.379,1.4-3.646,1.749-9.031,2.5-18.785,3.182-28.027,4.51-18.323,2.631-36.642,5.314-54.926,8.213-12.105,1.919-24.254,3.838-36.2,6.6-5.715,1.321-12.651,2.567-17.51,6.116-3.146,2.3-3.3,5.734-2.8,9.455.927,6.811,8.364,6.952,13.851,6.589,3.447-.228,7.994-1.316,11.292.133a10.628,10.628,0,0,1,1.628,1.091c1.1.718.16,2.545.793.424.756-2.534-.466.881-.692,1.581a42.844,42.844,0,0,1-1.632,4.046c-3.611,8.21-7.73,16.189-10.918,24.582-3.959,10.422-10.183,33.018,6.771,34.977,5.979.691,12.143-.71,17.891-2.2.439-.114-.369-4.9,0-5-7.466,1.939-20.866,5.527-26.609-2.059a10.74,10.74,0,0,1-1.77-3.8,19.481,19.481,0,0,1-.435-2.937c.282,2.643.164.4.384-.958a65.081,65.081,0,0,1,3.459-12.2c3.1-8.361,7.158-16.307,10.8-24.437,1.648-3.684,5.975-14.578,1.033-17.786-2.84-1.842-7.654-.776-10.773-.547-3.664.269-8.132.834-11.494-1.038A6.838,6.838,0,0,1,2.3,426.219a15.81,15.81,0,0,0-.664-1.951c-1.435-.853,1.169,4.171-.025,3.854.039.01.024-.411.078-.444.16-.1.154-.7.311-.867.463-.5.767-1.155,1.269-1.657,3.524-3.525,9.8-4.783,14.4-5.98,10.524-2.736,21.313-4.5,32.031-6.272,29.044-4.795,58.489-7.75,87.407-13.224,2.444-.462,6.97-.691,7.838-3.477,1.034-3.319-.386-6.183-1.9-8.907a22.927,22.927,0,0,1-2.117-4.894c-.3-1.05-.361-2.127-.606-3.178-.576-2.475-.6,4.141.036.348.134-.8.215-1.6.372-2.39,1.19-6.02,3.87-15.811,10.57-17.926,6.494-2.051,14.85.571,21.555.4a88.214,88.214,0,0,0,36.56-9.408c16.761-8.358,28.291-23.035,38.95-37.964,16.217-22.711,32.235-45.3,51.067-65.979q9.692-10.641,19.989-20.7c.851-.836-.814-4.2,0-5Z"/>
              </g>
              <g id="_Група_47" data-name="&lt;Група&gt;">
                <path class="cls-7" d="M352.992,228.6c-11.109,30.653-21.054,61.76-29.5,93.254-7,26.116-13.743,52.95-15.754,80-.614,8.26-.922,16.919.326,25.134-.246-1.623.248-3.366,0-5-1.413-9.3-.187-18.837,1.063-28.1,1.554-11.5,3.78-22.911,6.287-34.24,6.019-27.2,13.69-54.043,22.125-80.584q7.274-22.887,15.455-45.469c.538-1.484-.529-3.54,0-5Z"/>
              </g>
              <g id="_Група_48" data-name="&lt;Група&gt;">
                <path class="cls-7" d="M330.169,230.753c-27.879,62.705-56.535,126-75.638,192.069q-5.2,18-9.349,36.285c-.364,1.591.361,3.425,0,5,12.44-54.337,32.567-106.266,54.187-157.526,10-23.722,20.341-47.3,30.8-70.828.625-1.4-.612-3.623,0-5Z"/>
              </g>
              <g id="_Група_49" data-name="&lt;Група&gt;">
                <path class="cls-7" d="M306.562,218.019c-24.767,35.468-44.6,74.8-72.154,108.261C223.4,339.646,210.612,352,195,359.838c-14.844,7.45-32.449,11.325-48.981,12.365-9.2.578-18.679-.455-27.455,2.942-12.741,4.931-22.082,15.574-34.7,20.945-14.118,6.008-29.342,8.879-44.233,12.265-11,2.5-25.327,4.7-33.744,12.978C.072,427.052,1.424,434.8,1.911,442.159c.522,7.905.094,15.85.4,23.765.6,15.721,4.2,33.019,20.735,39.046,11.9,4.338,25.594,2.557,37.678.063,21.044-4.343,41.068-12.651,61.958-17.7,27.651-6.688,57.083-10.105,84.093.9,27.7,11.282,50.076,32.851,75.823,47.615,13.532,7.76,28.518,15.362,44.213,17.294,7,.861,17.384.687,22.059-5.705,4.037-5.519,4.944-14.245,6.168-20.739,2.032-10.785,3.5-21.673,5.044-32.536,1.52-10.718,2.978-21.463,5.047-32.092,1.125-5.778,1.966-14.632,6.084-19.268,3.788-4.264,6.916,3,8.158,5.926,3.274,7.718,6.092,15.438,10.176,22.807a145.079,145.079,0,0,0,16.9,24.267c24.548,28.539,61.612,47.772,99.065,34,13.4-4.928,24.559-12.855,32.924-24.43,4.6-6.368,8.726-14.616,17.62-14.876,5.612-.164,10.885,2.075,16.581,1.775a52.826,52.826,0,0,0,20.474-5.817,74.918,74.918,0,0,0,33.67-33.474c6.9-14.123,5.73-28.184,5.5-43.365-.11-7.435-2-25.266,8.827-27.143,3.458-.6,6.578.7,8.777-2.748,2.138-3.35,2.073-7.964,2.1-11.793a79.266,79.266,0,0,0-6.789-33.6c-5.012-11.021-15.125-23.154-28.572-17.364-5.168,2.226-9.149,6.338-14.073,8.96-5.4,2.877-8.515.953-12.964-2.471-2.713-2.088-6.815-5.1-10.483-3.779-2.794,1.008-4.062,4.24-4.909,6.824-2.88,8.79-3.038,18.262-5.837,27.1-2.721,8.592-7.985,15.54-17.72,15.321,0,0-.075,5,0,5,21.1.474,19.01-28.541,23.557-42.419.848-2.586,2.115-5.816,4.909-6.824,3.406-1.23,7.187,1.34,9.783,3.248,4.438,3.262,7.4,6.058,12.988,3.355,4.978-2.406,8.915-6.539,13.922-8.932,12.634-6.037,22.872,3.989,28.266,14.624a75.436,75.436,0,0,1,6.491,19.167c.689,3.415.925,6.8,1.337,10.25.083.692-.176,2.167.028-.432-.061.771-.087,1.534-.176,2.3a21.54,21.54,0,0,1-.733,3.793c-1.191,3.928-3.06,5.112-6.96,5.219-2.976.081-5.91.46-7.991,2.815-2.675,3.025-3.1,7.827-3.446,11.647-.488,5.4-.444,10.843-.42,16.256.037,8.47,1.105,17.2-.518,25.554a61.294,61.294,0,0,1-9.357,22.173c-8.576,12.861-21.5,23.475-36.118,28.687-6.18,2.2-12.9,3.482-19.463,2.695-4.812-.577-9.436-2.484-14.308-1.079-7.806,2.25-11.771,11.7-16.42,17.571-21.074,26.617-59.654,32.22-89.483,18.431-16.877-7.8-31.394-20.327-43.008-34.73a144.85,144.85,0,0,1-15.752-24.066c-3.48-6.694-5.769-13.8-8.889-20.624-1.443-3.159-4.506-8.9-7.935-4.443-3.926,5.1-4.791,13.557-5.955,19.636-4.054,21.18-5.958,42.712-9.951,63.9-1.228,6.515-2.183,14.631-5.9,20.321-4.2,6.431-14.252,6.925-21.037,6.264-14.617-1.423-28.683-8.166-41.388-15.125-16.2-8.875-30.971-19.84-46.1-30.362-19.677-13.685-40.182-24.978-64.579-26.56-15.42-1-30.919,1.163-45.966,4.407-21.008,4.53-40.962,12.381-61.74,17.643-18.87,4.779-48.169,9.961-60.034-10.516-8-13.807-5.757-31.275-6.2-46.542-.043-1.5-.1-3.006-.214-4.506-.063-.861-.136-1.722-.234-2.58-.09-.777.164-1.042-.116.876a18.885,18.885,0,0,1,.35-1.986c1.109-4.327,4.376-7.5,8.053-9.809,10.683-6.7,24.447-8.694,36.542-11.393,14.618-3.263,29.666-6.485,43.081-13.388,11.246-5.787,19.909-15.954,32.391-19.415,8.992-2.494,18.73-1.248,27.939-2.121,16.719-1.586,34.364-5.848,49.051-14.165,32.109-18.185,52.232-53.132,71.209-83.455,11.854-18.941,23.618-37.934,36.415-56.26.794-1.137-.77-3.9,0-5Z"/>
              </g>
              <g id="_Група_50" data-name="&lt;Група&gt;">
                <path class="cls-21" d="M333.924,69.44c-6.045.7-12.1,1.348-18.171.591-5.94-.741-11.671-2.56-17.358-4.357.445.14-.514,4.837,0,5,5.688,1.8,11.418,3.616,17.358,4.357,6.074.757,12.126.111,18.171-.591.227-.026-.154-4.982,0-5Z"/>
              </g>
              <g id="_Група_51" data-name="&lt;Група&gt;">
                <g id="_Група_52" data-name="&lt;Група&gt;">
                  <path class="cls-12" d="M301.084,83.805c10.5.412,20.984.054,31.479-.258,5.938-.177,12.309-.815,18.1.849,13.194,3.79,13.241,17.128,14.5,28.553,2.561,23.294,8.927,46.412,14.765,69.063,3.955,15.342,7.2,30.893,10.77,46.329,3.262,14.106,7.727,28.054,10.428,42.27,3.377,17.77,3.283,35.76,3.771,53.761l.006-4.911c-3.351,0-3.413-.051-5.439,2.553-1.955,2.515-1.805,3.775-4.419,2.013-2.094-1.411-6.465-3.187-7.841-5.284a8.853,8.853,0,0,1-.706-3.237l-5.336-33.6v5l2.114-16.918c.392-3.135,1.39-7.322.695-10.484-.869-3.946-3.371-8.021-4.92-11.746-3.326-8-6.614-16.009-9.744-24.083-9.793-25.272-17.472-51.541-25.932-77.282-3.321-10.1-5.907-20.363-9.162-30.464.483,1.5-.49,3.48,0,5,2.1,6.5,3.558,13.133,5.637,19.633,3.4,10.629,6.948,21.212,10.468,31.8,6.711,20.185,12.8,40.7,20.627,60.487,4.191,10.6,8.558,21.124,13.022,31.607v-5c-1.184,9.474-4,19.909-2.483,29.48l3.587,22.585,1.6,10.042c.357,2.246.538,2.177,2.546,3.531l5.833,3.93c1.463.986,1.25,1.184,2.394.591,1.617-.838,2.138-3.727,3.675-4.725,1.05-.682,2.429-.432,3.789-.432.049,0,.018-4.487.007-4.91l-.738-27.224c-.2-7.435-1.462-14.752-2.438-22.123-1.957-14.79-6.854-29.3-10.326-43.793-3.79-15.825-7.1-31.768-11-47.566-5.042-20.441-10.426-40.826-13.91-61.611-2.008-11.977.432-30.352-12.533-36.611-5.316-2.567-11.336-2.311-17.084-2.192-11.938.247-23.849.843-35.792.374.028,0-.1,5,0,5Z"/>
                </g>
                <g id="_Група_53" data-name="&lt;Група&gt;">
                  <g id="_Група_54" data-name="&lt;Група&gt;">
                    <path class="cls-21" d="M399.87,297.185c-3.69,5.815-9.983.508-12.034-3.738a40.754,40.754,0,0,1-3.158-9.806c-.388-1.958-.575-3.905-.784-5.886-.8-7.588-.36,14.3-.132,12.435.2-1.633.194-3.3.369-4.934.781-7.293,3.183-14.345,3.705-21.657a181.675,181.675,0,0,0,.06-23.123c-.415-7.134-4.089-13.42-5.739-20.271-1.906-7.908-2.827-15.89-5.3-23.682-4.744-14.944-11.606-29.136-16.707-43.964a358.552,358.552,0,0,1-13.555-51.945c1.178,6.42-1.188,13.527,0,20a362.719,362.719,0,0,0,20.522,70.511c4.44,10.984,9.25,21.909,12.006,33.473,1.446,6.065,1.963,12.342,3.754,18.325,1.735,5.8,4.43,11.088,4.993,17.2l-.051-1.365q.735-20.58-.433-11.321-.219,1.373-.5,2.735c-.417,2.127-.923,4.234-1.353,6.358a95.227,95.227,0,0,0-1.572,10.492c-.728,8.237-.456,16.651-.325,24.906.11,6.89.874,13.683,3.572,20.1,1.865,4.433,8.424,11.849,12.665,5.166,1.153-1.817.1-7.842.1-10,0-2.357,0-4.714-.03-7.071-.007-.6-.353-2.483-.07-2.929Z"/>
                  </g>
                  <g id="_Група_55" data-name="&lt;Група&gt;">
                    <path class="cls-22" d="M336.229,114.4a588.878,588.878,0,0,0,24.333,71.07c4.5,10.81,10.17,21.306,13.992,32.375,2.04,5.908,2.819,12.025,3.765,18.174.979,6.359,2.492,12.59,4.07,18.823v-20q-.4-1.26-.8-2.52c.835,2.634-.1,7.208-.1,10,0,2.976-.811,7.127.1,10q.4,1.26.8,2.52c-.835-2.634.1-7.208.1-10,0-3.1.668-6.969-.1-10-1.5-5.921-2.957-11.844-3.926-17.88-.991-6.166-1.664-12.346-3.628-18.307-3.748-11.377-9.67-22.13-14.273-33.185A588.878,588.878,0,0,1,336.229,94.4c.759,2.778-.1,7.1-.1,10,0,3.062-.716,7.017.1,10Z"/>
                  </g>
                  <g id="_Група_56" data-name="&lt;Група&gt;">
                    <path class="cls-23" d="M399.89,326.388c1.229-44.081-7.934-87.742-18.129-130.4-6.011-25.149-12.539-50.253-20.6-74.832a236.61,236.61,0,0,0-10.427-27.447c-1.683-3.562-4.565-11.142-9-12.248-2.925-.729-6.55,1.858-8.721,3.469a39.925,39.925,0,0,0-11.066,13.123,46.875,46.875,0,0,0-5.374,21.181c-.231,8.425-.494,17.1,1.027,25.42-.88-4.817.888-10.144,0-15-.371-2.033-.606-4.05-.829-6.1-.651-5.991-.28,9.735-.119,8.713.2-1.274.175-2.6.343-3.885a44.623,44.623,0,0,1,2.084-8.807,43.709,43.709,0,0,1,7.682-13.651c2.874-3.444,9.863-11.03,15.218-9.384,3.676,1.13,6.129,6.9,7.672,9.945a181.939,181.939,0,0,1,9.125,22.586C372.9,169.742,383.156,212.3,391.3,254.556c3.085,16.013,5.651,32.15,7.248,48.383.477,4.853.867,9.716,1.1,14.587.069,1.409.1,2.818.163,4.227.163,3.8.024-8.131.019-4.454.027-19.534.155-6.264,0-4.829-.044.421.018-.691.014-.546-.126,4.5.139,10.916.04,14.464Z"/>
                  </g>
                </g>
              </g>
              <path id="_Контур_26" data-name="&lt;Контур&gt;" class="cls-8" d="M367.1,107.529c13.628,17.807,15.29,27.681,15.29,27.681s-8.356,11.493-8.571,11.008S367.1,107.529,367.1,107.529Z"/>
              <g id="_Група_57" data-name="&lt;Група&gt;">
                <path class="cls-7" d="M307.883,216.092c10.027,3.782,20.278,7.216,31.02,4.4,9.557-2.5,17.741-8.513,25.566-14.3.82-.606-.772-4.429,0-5-7.826,5.785-16.008,11.793-25.566,14.3-10.747,2.817-20.988-.616-31.02-4.4.518.2-.583,4.78,0,5Z"/>
              </g>
              <g id="_Група_58" data-name="&lt;Група&gt;">
                <path class="cls-7" d="M324.057,7.176c-4.831,2.824-5.858,7.209-6.552,12.44-.732,5.51-1.635,10.086-5.347,14.444-8.188,9.611-22.484,13.831-27.311,26.319-2.747,7.109-.666,13.5,2.9,19.948,6.9,12.473,17.012,27.895,6.955,41.559-.4.549.391,1.969,0,2.5,4.5-6.121,5.236-14.109,4.091-21.468-1.057-6.793-4.258-13-7.565-18.937-3.351-6.018-9.145-13.041-6.668-20.27,4.385-12.8,18.677-17.158,27.1-26.567,3.836-4.286,5.067-8.847,5.773-14.422.685-5.4,1.589-10.1,6.626-13.046.376-.22-.349-2.3,0-2.5Z"/>
              </g>
              <g id="_Група_59" data-name="&lt;Група&gt;">
                <path class="cls-12" d="M321.611,0C310.1,13.647,284.9,15.939,281.582,36.119c-2.244,13.662,6.56,34.029-9,41.715-.691.341.631,4.688,0,5,15.988-7.9,6.9-28.579,9-41.715C284.807,20.963,310.141,18.6,321.611,5c.836-.992-.805-4.045,0-5Z"/>
              </g>
              <path id="_Контур_27" data-name="&lt;Контур&gt;" class="cls-24" d="M341.283,52.273c-2.968,1.19-2.486,1.621-5.29,1.675a12.91,12.91,0,0,0-5.718,1.943"/>
              <path id="_Контур_28" data-name="&lt;Контур&gt;" class="cls-25" d="M341.067,51.412c-1.673-1.888-2.266-.917-3.777,0s-1.727-.814-3.723.861-3.292,2.862-3.292,2.862,4.865-1.962,6.583-1.78S341.067,51.412,341.067,51.412Z"/>
              <path id="_Контур_29" data-name="&lt;Контур&gt;" class="cls-25" d="M341.283,52.733c-.175,2.956-1.942,5.465-5.612,4.372a38.3,38.3,0,0,0-4.64-1.214s.485-1.417,4.047-1.376a10.565,10.565,0,0,0,5.989-1.782Z"/>
              <path id="_Контур_30" data-name="&lt;Контур&gt;" class="cls-12" d="M335.186,46.232c1.025-.593,1.3-1.619,0-1.511a3.694,3.694,0,0,0-2.267,1.511Z"/>
              <path id="_Контур_31" data-name="&lt;Контур&gt;" class="cls-12" d="M325.789,31.05a28.245,28.245,0,0,0,5.019,5.989,28.043,28.043,0,0,1,3.423,2.992.984.984,0,0,1,.05,1.3c-1.094,1.083-4.152.621-4.159,2.754l0-.281.018.215c.012.147-.012.3,0,.443a2.092,2.092,0,0,1,1.056-2.333,23.742,23.742,0,0,1,2.289-.846c.32-.128.957-.3,1-.721,0,.138,0,.275,0,.413-.01-.431-.561-.831-.848-1.085-.692-.614-1.426-1.18-2.126-1.785a29.043,29.043,0,0,1-5.723-6.612c-.067-.108.065-.339,0-.444Z"/>
              <path id="_Контур_32" data-name="&lt;Контур&gt;" class="cls-12" d="M324.057,29.262c-4.648-1.658-11.075-.162-12.937.891s-4.937,4.775-4.937,4.775,6.637-6.407,17.874-3.878C324.057,31.05,324.861,29.549,324.057,29.262Z"/>
              <path id="_Контур_33" data-name="&lt;Контур&gt;" class="cls-12" d="M334.6,24.244c-1.872,1.052-4.867,3.779-4.867,4.277a7.562,7.562,0,0,0,.4,1.632L335.779,26Z"/>
            </g>
          </g>
        </g>
      </g>
    </g>
  </g>
</svg>
