<svg xmlns="http://www.w3.org/2000/svg" viewBox="0 0 210.39 302.21">
  <defs>
    <style>
      .cls-1 {
        fill: #dc0a33;
      }

      .cls-2 {
        fill: #323644;
      }
    </style>
  </defs>
  <title>1shopik-logo-4</title>
  <g id="Шар_2" data-name="Шар 2">
    <g id="Layer_1" data-name="Layer 1">
      <g>
        <path class="cls-1" d="M138.634,180.45c-6.6-8.157-21.836-19.368-13.4-31.112,4.63-6.443,15.561-5.288,18.053-14.076.107-.38.2-.778.277-1.193a12.744,12.744,0,0,0-2.276-9.437c-.1-.144-.2-.317-.316-.517-6.049-10.789-20.023-14.256-29.9-6.812a32.1,32.1,0,0,0-10.721,13.657,26.324,26.324,0,0,0-7.483-15.879A8.9,8.9,0,0,0,79.3,116.1c-9,13.018-3.88,29.025-2.667,43.414.1,1.134.146,2.257.163,3.373,16.281-13.184,41.669-11.848,41.669-11.848-21.3,5.524-37.88,22.343-44.108,29.422-2.477,9.3-6.3,18.335-8.949,27.747-8.579,30.532-1.816,63.022,4.972,94,1.694-20.92,18.5-38.073,37.575-46.825,5.929-2.721,11.8-5.752,17.684-8.5q1.881-.879,3.765-1.715c9.13-4.036,17.992-8.833,19.045-19.243C150.023,210.378,148.756,192.951,138.634,180.45Z"/>
        <g>
          <path class="cls-1" d="M53.387,230.068A98.7,98.7,0,0,1,10.369,118.59a19.275,19.275,0,0,1-6.156-2.018A105.162,105.162,0,0,0,53.071,237.394C53.108,234.954,53.223,232.511,53.387,230.068Z"/>
          <path class="cls-1" d="M152.751,52.212a23.489,23.489,0,0,1-.914,2.616c-.37.876-.8,1.727-1.24,2.575-.134.257-.259.52-.388.78A98.718,98.718,0,0,1,155.975,230.7a25.2,25.2,0,0,1-5.314,10.219,105.205,105.205,0,0,0,2.09-188.707Z"/>
        </g>
        <path class="cls-2" d="M159.106,107.928c-8.166-7.6-36.762-13.683-36.762-13.683l0,.008a17.189,17.189,0,0,1-.48-3.221,13.352,13.352,0,0,1,2.738-7.866c3.568-4.592,9.61-6.274,13.319-10.686,4.526-5.383,1.828-11.217,4.445-17.132.563-1.273,1.292-2.469,1.834-3.751,1.848-4.371,1.641-10.206,1.422-14.912-.147-3.161-1.577-5.892-2.68-8.785-1.282-3.36-1.321-6.4-2.091-9.8-1.059-4.691-5.969-9.767-9.269-13.149-5.37-5.5-10.191-1.2-16.363-3.879-.511-.221-1-.5-1.525-.679-4.958-1.657-12.549,2.414-16.954,4.26a32.865,32.865,0,0,0-12.168,9.3c-.749.888-1.44,1.814-2.132,2.715-2.2,2.868-4.411,5.486-8.539,5.824-2.754.225-5.74.222-7.944,1.888-2.133,1.614-2.972,4.378-3.688,6.955Q61.5,34.1,60.727,36.871c-1.277,4.6-3.783,6.321-8.53,5.963a13.486,13.486,0,0,0-9.057,2.279,8.564,8.564,0,0,0-3.494,8.329,13.509,13.509,0,0,0,3.258,5.6c2.831,3.382,5.992,7.055,6.018,11.466A8.965,8.965,0,0,1,37.235,79.1c-2.7-.862-5.281-3.291-7.238-4.885-1.372-1.118-3.262-1.286-5.028-1.408-4.189-.287-9.268,1.349-11.349,5.442a30.1,30.1,0,0,0-1.852,4.145c-1,3.038-.434,5.3.466,8.236.869,2.836,2.978,4.522,3.915,7.253.654,1.907.191,4.359-1.569,5.34a5.2,5.2,0,0,1-2.252.548,6.593,6.593,0,0,1-5.158-1.583c-1.295-1.329-1.459-3.811.033-4.912-3.33,1.431-4.168,6.268-2.159,9.286s5.964,4.261,9.577,3.964a11.72,11.72,0,0,0,7.329-3.148,8.111,8.111,0,0,0,2.324-7.437c-.523-2.172-2.053-3.942-3.028-5.952S20,89.247,21.68,87.776a4.551,4.551,0,0,1,1.882-.921,6.88,6.88,0,0,1,7.874,3.487c1.81,3.147,3.542,6.291,5.4,9.456a14.335,14.335,0,0,0,5.279,4.953,19.905,19.905,0,0,0,12.233,2.465,12.4,12.4,0,0,0,5.853-2.047c-5.624,48.677,2.317,71.6,2.317,71.6,24.81-24.263,56.7-25.78,56.7-25.78C89.65,144.541,65.5,166.909,65.5,166.909c-6.709-28.813,0-68.376,0-68.376h0c.531-1.07,1.036-2.176,1.528-3.326,1.828-4.274,6.353-5.493,10.641-5.376,6.891.187,14.112,3.011,20.14,6.247,3.44-3.423,4.028-10.622,3.91-16.131-12.9-11.157-13.3-29.048-9.806-44.423,1.421-6.247,10.328-6.152,14.644-2.078,1.79,1.689,2.479,4.212,3.02,6.613.878,3.9,2.048,8.452,5.751,9.956,1.62.658,3.432.569,5.164.811a13.617,13.617,0,0,1,9.548,6.215c5.861,9.448-3.952,20.014-12.111,24.314-1.24,11.088,3.347,15.923,3.35,15.926s26.022,4.239,35.353,15.136,27.532,53.515,27.532,55.205c0,13.147-31.536,32.944-31.536,32.944,32.944-16.05,38.294-32.1,38.294-32.1S167.272,115.53,159.106,107.928Z"/>
      </g>
    </g>
  </g>
</svg>
