<svg xmlns="http://www.w3.org/2000/svg" viewBox="0 0 166.775 278.301">
  <defs>
    <style>
      .cls-1 {
        fill: #323644;
      }

      .cls-2 {
        fill: #3babe2;
      }
    </style>
  </defs>
  <title>1shopik-logo-2</title>
  <g id="Шар_2" data-name="Шар 2">
    <g id="Layer_1" data-name="Layer 1">
      <g>
        <g>
          <path class="cls-1" d="M31.756,128.591s-32.128.259-20.338-19.424c10.975-18.321,123.691-48.087,149.193-84.6a18.481,18.481,0,0,0,1.872-18.5c-2.967-6.185-9.772-10.653-25.371,2.168,0,0,19.417-13.713,21.034,6.39S17.8,94.449,17.8,94.449-8.526,106.832,2.854,122.614C10.831,133.677,31.756,128.591,31.756,128.591Z"/>
          <path class="cls-1" d="M52.483,68.783s36.844-7.04,59.192-30.645C111.675,38.138,78.888,59.041,52.483,68.783Z"/>
          <path class="cls-1" d="M41.366,64.879S26.3,25.526,53.351,9.064C83.2-9.1,104,15.07,111.2,23.366c0,0-24.731-20.908-51.59-4.169C35.974,33.925,41.366,64.879,41.366,64.879Z"/>
        </g>
        <path class="cls-2" d="M128.148,231.278s-22.83-13.535,7.62-36.91c4.729-3.631,8.438-8.92,8.808-15.239.038-.654.05-1.331.03-2.031-9.729-11.6-23.837-18.36-34.247-20.286-5,8.949-13.2,22.645-19.793,37.366,0,0-7.689-21.211-15.2-39.887C53.959,155.144,42.41,171.3,42.41,171.3s-4.813,14.555,4.56,37.137,8.837,69.86,8.837,69.86H166.775S166.115,259.431,128.148,231.278Z"/>
        <path class="cls-1" d="M129.043,53.461S91.33,77.452,55.089,89.828c0,0,8.136,18.272-4.958,35.277S8.6,144.7,21.323,191.645c0,0-8.23-40.664,23.57-47.687S132.534,112.948,129.043,53.461Z"/>
      </g>
    </g>
  </g>
</svg>
