<svg xmlns="http://www.w3.org/2000/svg" viewBox="0 0 265.105 233.294">
  <defs>
    <style>
      .cls-1 {
        fill: #e7352b;
      }

      .cls-2 {
        fill: #323644;
      }
    </style>
  </defs>
  <title>1shopik-logo-1</title>
  <g id="Шар_2" data-name="Шар 2">
    <g id="Layer_1" data-name="Layer 1">
      <g>
        <g>
          <path class="cls-1" d="M153.07,129.4c-2.885-2.193-8.656,2.539-8.656,2.539a13.513,13.513,0,0,1,8.656,0,13.513,13.513,0,0,1,8.656,0S155.955,127.211,153.07,129.4Z"/>
          <path class="cls-1" d="M153.07,133.312a16,16,0,0,0-8.656-.832c2.833,4.639,8.655,3.628,8.655,3.628s5.824,1.011,8.657-3.628A16,16,0,0,0,153.07,133.312Z"/>
        </g>
        <path class="cls-2" d="M56.974,68.3s-23.34-28.974,3.22-32.6c24.721-3.371,133.117,77.281,185,73.858A21.877,21.877,0,0,0,263.53,97.8c3.548-7.194,2.76-16.623-20.236-21.452,0,0,26.56,7.646,9.256,23.743S78.3,30.781,78.3,30.781,48,15.9,41.682,37.711C37.256,53,56.974,68.3,56.974,68.3Z"/>
        <path class="cls-2" d="M105.943,57.271c-3.1,5.066-5.675,8.191-12.2,9.2-4,.619-8.364.93-11.409,3.6-2.947,2.583-3.881,6.712-4.655,10.553q-.831,4.127-1.663,8.259c-1.382,6.858-4.862,9.636-11.836,9.614-4.66-.014-9.466,1.242-13,4.286s-5.522,8.064-4.226,12.541c.888,3.07,3.128,5.539,5.351,7.836,4.495,4.643,9.5,9.677,10,16.12A13.133,13.133,0,0,1,46.14,153.07c-4.041-.974-8.064-4.251-11.091-6.374-2.124-1.489-4.9-1.535-7.5-1.526-6.152.022-13.4,2.95-16.011,9.15a44.03,44.03,0,0,0-2.268,6.253c-1.148,4.545-.075,7.79,1.55,11.985,1.569,4.053,4.829,6.294,6.487,10.187,1.157,2.716.739,6.348-1.729,7.968a7.644,7.644,0,0,1-3.234,1.039c-2.695.356-5.67.036-7.7-1.769s-2.536-5.414-.471-7.182C-.542,185.244-1.255,192.4,2,196.6s9.165,5.6,14.413,4.782a17.179,17.179,0,0,0,10.378-5.374A11.887,11.887,0,0,0,29.4,184.893c-.993-3.118-3.416-5.543-5.053-8.377s-2.323-6.8-.022-9.124a6.67,6.67,0,0,1,2.653-1.544c4.613-1.554,9.132.206,11.874,4.265,2.978,4.407,5.841,8.819,8.893,13.248,2.138,3.1,4.92,4.955,8.236,6.679,5.438,2.826,12.114,3.361,18.137,2.311,10.878-1.9,14.151-9.868,17.261-18.887,2.221-6.438,8.7-8.7,14.982-8.979,10.091-.454,20.941,2.91,30.091,7,4.665-5.366,4.765-15.948,4.01-23.985-20.036-14.943-22.5-41.047-19.017-63.883.428-2.805,1.178-6.055,3.765-7.22,2.358-1.062,5.209.251,6.857,2.244s2.437,4.532,3.473,6.9c1.428,3.26,3.583,6.459,6.868,7.828,3.86,1.607,8.23.335,12.318-.539s8.937-1.111,11.839,1.9c1.571,1.628,2.383,4.057,4.4,5.083,1.689.859,3.707.462,5.6.554,14.564.711,7.8,19.29,4.456,27.291a43.066,43.066,0,0,1-16.72,20.188c-.642,16.333,6.571,22.915,6.576,22.92,16.551-14.121,30.442-38.3,33.068-65.458C172.146,93.7,135.125,72.465,105.943,57.271Z"/>
        <path class="cls-2" d="M123.133,37.778s39.553,33.985,84.856,37.714C207.989,75.492,156.657,58.032,123.133,37.778Z"/>
        <path class="cls-2" d="M124.879,28.7s25.143-38.761,59.714-26.19c38.149,13.872,31.079,46.793,28.634,59.364,0,0-.7-45.745-32.126-53.428S124.879,28.7,124.879,28.7Z"/>
        <path class="cls-1" d="M113.326,169.91c-9.855,25.808-15.775,49.046-8.065,63.384H211.488S121.931,229.471,113.326,169.91Z"/>
      </g>
    </g>
  </g>
</svg>
